<svg width="112" height="112" viewBox="0 0 112 112" fill="none" xmlns="http://www.w3.org/2000/svg">
<g opacity="0.8">
<g filter="url(#filter0_d_29_318)">
<circle cx="56" cy="56" r="40" fill="#000100"/>
<circle cx="56" cy="56" r="39.3617" stroke="white" stroke-width="1.2766"/>
</g>
<circle cx="55.8813" cy="55.8813" r="35.1475" transform="rotate(0.047194 55.8813 55.8813)" stroke="#00BF63" stroke-width="1.29752"/>
<path d="M52.2434 59.8523L55.6698 64.2225L59.1021 47.9748L54.3871 57.9793L50.2225 53.4378L47.0542 68.4214L52.2434 59.8523Z" fill="#FFD12F"/>
<path d="M57.905 73.2923L57.9139 73.4093C58.8968 73.2416 59.8832 73.0284 60.8523 72.7395L60.9645 72.706L60.9469 72.5962C60.9371 72.5355 60.9291 72.4798 60.9209 72.4233C60.9139 72.3741 60.9067 72.3243 60.8982 72.27L60.8813 72.1618L60.769 72.1826C59.809 72.3603 58.8439 72.4859 57.8777 72.5908C55.8129 72.8135 53.7397 72.9654 51.6888 72.9593L51.6881 72.9593C49.5745 72.9654 47.4708 72.8048 45.3913 72.5693L42.7329 72.6659L42.7329 72.6659M57.905 73.2923L57.914 73.4093C55.8075 73.7711 53.6912 73.9325 51.5913 73.9393L51.5905 73.9393C49.5497 73.9325 47.5224 73.7805 45.5408 73.4397L45.5408 73.4397C44.5766 73.2735 43.6164 73.0637 42.6884 72.7783C42.6882 72.7783 42.688 72.7782 42.6879 72.7782L42.7329 72.6659M57.905 73.2923C55.8062 73.6528 53.6968 73.8138 51.6027 73.8205L57.8791 72.7089C58.8469 72.6038 59.8154 72.4778 60.7796 72.2993C60.7874 72.3491 60.7946 72.399 60.8018 72.4491C60.8103 72.508 60.8189 72.567 60.8284 72.626C59.8655 72.913 58.8844 73.1252 57.905 73.2923ZM42.7329 72.6659L42.6593 72.6408L42.7329 72.6659Z" fill="#00BF63" stroke="#00BF63" stroke-width="0.238702"/>
<path d="M69.7356 50.1476C70.5077 51.0706 70.898 52.4086 70.9295 54.2364C70.9983 58.2611 70.5064 63.2816 66.0535 66.4002C65.552 66.7519 65.1039 67.0639 64.7025 67.3428L64.7013 67.3436C61.6991 69.4327 61.454 69.6032 61.1669 70.6999C61.1113 70.9114 61.0637 71.5804 61.0463 71.953L69.7356 50.1476ZM69.7356 50.1476C68.9079 49.1579 67.6244 48.6048 65.8104 48.4566C63.8669 48.2976 63.4526 47.76 63.4727 47.5572L63.6994 45.278L63.6994 45.2777C63.701 45.2616 63.7579 44.6742 64.0153 44.124C64.2587 43.6025 64.2681 43.0656 64.0397 42.6869L69.7356 50.1476ZM45.88 43.8432L45.88 43.8433C46.0646 44.531 45.9933 45.2301 45.9877 45.2845C45.9876 45.2855 45.9875 45.2862 45.9875 45.2868L43.3334 71.9712C43.2904 72.4037 43.0982 72.8001 42.938 73.1304L42.9329 73.1408L42.9329 73.1409C42.8123 73.3894 42.7495 73.5359 42.7258 73.6271C42.7142 73.6716 42.7152 73.6917 42.7166 73.6991L42.7167 73.6996L45.88 43.8432ZM45.88 43.8432C45.8031 43.5575 45.8496 43.3045 45.9687 43.1558L45.8777 43.0878L45.9687 43.1559C46.0462 43.0593 46.1639 42.9941 46.3064 42.9534C46.4486 42.9129 46.6042 42.9 46.7419 42.9H62.5988C62.7362 42.9 62.8892 42.9129 63.0234 42.9534C63.1579 42.9941 63.2628 43.0592 63.3211 43.1557C63.4101 43.3038 63.4069 43.557 63.273 43.8433L63.273 43.8433C62.9461 44.543 62.8809 45.2543 62.8787 45.2853L62.9983 45.2821L62.8789 45.2825L62.8789 45.2826L62.8789 45.2828L62.8788 45.2838L62.8784 45.2877L62.8769 45.3029L62.8713 45.3612L62.8509 45.5738L62.7848 46.2593C62.734 46.785 62.6759 47.3849 62.6463 47.6825C62.6136 48.0112 62.9222 49.0465 65.6636 49.2709L65.685 49.1525L65.6636 49.2709C67.2301 49.399 68.3187 49.8316 69.0259 50.636C69.7343 51.4419 70.0753 52.6382 70.1042 54.3302L70.1042 54.3303C70.1705 58.1711 69.7092 62.8861 65.6232 65.7484L65.6231 65.7484C65.1336 66.0916 64.6951 66.3967 64.3011 66.6709L64.2747 66.6893L64.2557 66.7025C62.7254 67.7674 61.8457 68.3796 61.3068 68.897C61.0332 69.1598 60.8435 69.4015 60.6994 69.6691C60.5559 69.9354 60.4605 70.2217 60.3695 70.5691L60.3695 70.5691C60.3209 70.7544 60.2862 71.078 60.2627 71.3634C60.2392 71.649 60.226 71.9092 60.2225 71.9841C60.1826 72.413 60.2957 72.8069 60.3899 73.1349L60.3916 73.1409L60.5072 73.0983M45.88 43.8432L60.5072 73.0983M60.5072 73.0983L60.3916 73.1409C60.463 73.3898 60.4967 73.5362 60.5022 73.6273C60.5049 73.6717 60.4999 73.6917 60.497 73.699L60.4969 73.6994C60.4958 73.7021 60.4952 73.7036 60.4885 73.7083C60.4431 73.7391 58.6911 74.8942 51.4878 74.8942C44.277 74.8942 42.7591 73.7367 42.723 73.7082L60.5072 73.0983ZM63.0011 53.5055L63.001 53.5067L62.0342 63.2271L62.0339 63.2301L62.0339 63.2301C62.0015 63.4882 61.9771 63.7822 61.9677 64.0305C61.963 64.1548 61.9621 64.2661 61.9656 64.355C61.9692 64.4484 61.9775 64.5043 61.9853 64.5267L61.9854 64.527C62.0338 64.6667 62.0972 64.7571 62.1749 64.8137C62.2518 64.8697 62.3528 64.8997 62.4919 64.8997C62.8422 64.8997 63.2947 64.7156 63.715 64.4879C64.1302 64.263 64.493 64.0075 64.6562 63.8874L64.6563 63.8874C65.8355 63.0215 66.6445 61.9646 67.1631 60.4929C67.6836 59.0158 67.9126 57.1178 67.9209 54.5711M63.0011 53.5055L68.0409 54.5598M63.0011 53.5055C63.0212 53.2797 63.053 53.021 63.0884 52.7998C63.1061 52.6892 63.1245 52.5891 63.1425 52.5079C63.1612 52.4237 63.1777 52.3686 63.1894 52.3425M63.0011 53.5055L63.0805 52.3035M67.9209 54.5711L68.0409 54.5598M67.9209 54.5711C67.9209 54.5711 67.9209 54.5711 67.9209 54.5711L68.0409 54.5598M67.9209 54.5711C67.9243 53.4953 67.7267 52.8215 67.4323 52.3777C67.1389 51.9354 66.7413 51.7093 66.316 51.5457L66.3159 51.5457C65.9823 51.4172 65.527 51.3396 65.1019 51.3396C64.4044 51.3396 63.5567 51.5261 63.1894 52.3425M68.0409 54.5598C68.0477 52.381 67.2412 51.7699 66.3687 51.4344C66.0205 51.3003 65.5511 51.2208 65.1137 51.2208C64.4082 51.2208 63.483 51.4088 63.0805 52.3035M63.1894 52.3425L63.0805 52.3035M63.1894 52.3425C63.1894 52.3425 63.1894 52.3426 63.1894 52.3426L63.0805 52.3035M42.089 74.4617L42.0891 74.4617C42.2987 74.6282 42.6397 74.7947 43.1124 74.9516C43.5869 75.1091 44.2011 75.2592 44.963 75.3893C46.4868 75.6495 48.6073 75.8311 51.3947 75.8311C54.1821 75.8311 56.3387 75.6494 57.9143 75.389C58.7021 75.2588 59.3461 75.1086 59.852 74.951C60.3559 74.7941 60.73 74.6275 60.9727 74.461L60.9113 74.3655L60.9728 74.461C61.3102 74.2296 61.4312 73.9325 61.4452 73.633C61.4586 73.3473 61.3748 73.0551 61.3056 72.8134L61.3032 72.8052C61.3032 72.8052 61.3032 72.8052 61.3032 72.8052C61.2182 72.5068 61.1391 72.2264 61.1645 71.9712H61.1646L61.1649 71.9668L61.166 71.9486L61.1661 71.9468C61.1748 71.7618 61.1909 71.5031 61.2118 71.2646C61.233 71.0218 61.2582 70.8126 61.2828 70.7189L61.2828 70.7188C61.354 70.447 61.42 70.243 61.5225 70.0545C61.6241 69.8676 61.7652 69.6895 61.9937 69.4763C62.457 69.044 63.258 68.4861 64.7647 67.4377C65.1662 67.1588 65.6144 66.8468 66.1161 66.495C70.6305 63.3333 71.1183 58.2481 71.0494 54.2227C71.0177 52.3808 70.6243 51.015 69.831 50.0667C68.9796 49.0487 67.6648 48.488 65.8319 48.3382C64.8686 48.2594 64.2954 48.0875 63.969 47.917C63.806 47.8319 63.7077 47.7488 63.6524 47.681C63.595 47.6106 63.5912 47.5663 63.5921 47.5572L63.5924 47.5539L63.5927 47.5505L63.5931 47.5471L63.5934 47.5437L63.5938 47.5402L63.5941 47.5367L63.5945 47.5332L63.5948 47.5297L63.5952 47.5262L63.5955 47.5226L63.5959 47.519L63.5962 47.5154L63.5966 47.5117L63.597 47.508L63.5973 47.5044L63.5977 47.5006L63.5981 47.4969L63.5985 47.4931L63.5988 47.4893L63.5992 47.4855L63.5996 47.4817L63.6 47.4778L63.6004 47.4739L63.6007 47.47L63.6011 47.4661L63.6015 47.4621L63.6019 47.4581L63.6023 47.4541L63.6027 47.4501L63.6031 47.4461L63.6035 47.442L63.6039 47.4379L63.6044 47.4338L63.6048 47.4296L63.6052 47.4255L63.6056 47.4213L63.606 47.4171L63.6064 47.4129L63.6069 47.4086L63.6073 47.4044L63.6077 47.4001L63.6081 47.3958L63.6086 47.3915L63.609 47.3871L63.6094 47.3827L63.6099 47.3784L63.6103 47.3739L63.6107 47.3695L63.6112 47.3651L63.6116 47.3606L63.6121 47.3561L63.6125 47.3516L63.613 47.3471L63.6134 47.3425L63.6139 47.338L63.6143 47.3334L63.6148 47.3288L63.6153 47.3241L63.6157 47.3195L63.6162 47.3148L63.6166 47.3102L63.6171 47.3055L63.6176 47.3007L63.6181 47.296L63.6185 47.2913L63.619 47.2865L63.6195 47.2817L63.62 47.2769L63.6204 47.2721L63.6209 47.2672L63.6214 47.2624L63.6219 47.2575L63.6224 47.2526L63.6229 47.2477L63.6234 47.2428L63.6238 47.2378L63.6243 47.2329L63.6248 47.2279L63.6253 47.2229L63.6258 47.2179L63.6263 47.2129L63.6268 47.2078L63.6273 47.2028L63.6278 47.1977L63.6283 47.1926L63.6288 47.1875L63.6294 47.1824L63.6299 47.1773L63.6304 47.1721L63.6309 47.167L63.6314 47.1618L63.6319 47.1566L63.6324 47.1514L63.633 47.1462L63.6335 47.141L63.634 47.1357L63.6345 47.1305L63.635 47.1252L63.6356 47.1199L63.6361 47.1146L63.6366 47.1093L63.6372 47.104L63.6377 47.0986L63.6382 47.0933L63.6388 47.0879L63.6393 47.0825L63.6398 47.0771L63.6404 47.0717L63.6409 47.0663L63.6414 47.0609L63.642 47.0554L63.6425 47.05L63.6431 47.0445L63.6436 47.039L63.6442 47.0335L63.6447 47.028L63.6453 47.0225L63.6458 47.017L63.6464 47.0115L63.6469 47.0059L63.6475 47.0004L63.648 46.9948L63.6486 46.9892L63.6491 46.9836L63.6497 46.978L63.6502 46.9724L63.6508 46.9668L63.6514 46.9612L63.6519 46.9556L63.6525 46.9499L63.653 46.9443L63.6536 46.9386L63.6542 46.9329L63.6547 46.9272L63.6553 46.9215L63.6559 46.9158L63.6564 46.9101L63.657 46.9044L63.6576 46.8987L63.6581 46.8929L63.6587 46.8872L63.6593 46.8814L63.6599 46.8757L63.6604 46.8699L63.661 46.8641L63.6616 46.8583L63.6622 46.8525L63.6627 46.8467L63.6633 46.8409L63.6639 46.8351L63.6645 46.8293L63.6651 46.8235L63.6656 46.8176L63.6662 46.8118L63.6668 46.806L63.6674 46.8001L63.668 46.7942L63.6685 46.7884L63.6691 46.7825L63.6697 46.7766L63.6703 46.7707L63.6709 46.7648L63.6715 46.759L63.6721 46.7531L63.6726 46.7471L63.6732 46.7412L63.6738 46.7353L63.6744 46.7294L63.675 46.7235L63.6756 46.7175L63.6762 46.7116L63.6768 46.7057L63.6774 46.6997L63.678 46.6938L63.6785 46.6878L63.6791 46.6819L63.6797 46.6759L63.6803 46.6699L63.6809 46.664L63.6815 46.658L63.6821 46.652L63.6827 46.6461L63.6833 46.6401L63.6839 46.6341L63.6845 46.6281L63.6851 46.6221L63.6857 46.6161L63.6863 46.6102L63.6869 46.6042L63.6875 46.5982L63.6881 46.5922L63.6887 46.5862L63.6893 46.5802L63.6898 46.5742L63.6904 46.5682L63.691 46.5622L63.6916 46.5562L63.6922 46.5502L63.6928 46.5441L63.6934 46.5381L63.694 46.5321L63.6946 46.5261L63.6952 46.5201L63.6958 46.5141L63.6964 46.5081L63.697 46.5021L63.6976 46.4961L63.6982 46.4901L63.6988 46.484L63.6994 46.478L63.7 46.472L63.7006 46.466L63.7012 46.46L63.7018 46.454L63.7024 46.448L63.703 46.442L63.7036 46.436L63.7042 46.43L63.7048 46.424L63.7054 46.418L63.706 46.412L63.7066 46.406L63.7072 46.4L63.7078 46.394L63.7084 46.3881L63.709 46.3821L63.7096 46.3761L63.7101 46.3701L63.7107 46.3641L63.7113 46.3582L63.7119 46.3522L63.7125 46.3462L63.7131 46.3403L63.7137 46.3343L63.7143 46.3284L63.7149 46.3224L63.7155 46.3165L63.7161 46.3105L63.7167 46.3046L63.7173 46.2986L63.7178 46.2927L63.7184 46.2868L63.719 46.2809L63.7196 46.2749L63.7202 46.269L63.7208 46.2631L63.7214 46.2572L63.722 46.2513L63.7225 46.2454L63.7231 46.2396L63.7237 46.2337L63.7243 46.2278L63.7249 46.2219L63.7255 46.2161L63.726 46.2102L63.7266 46.2044L63.7272 46.1985L63.7278 46.1927L63.7284 46.1869L63.7289 46.1811L63.7295 46.1752L63.7301 46.1694L63.7307 46.1636L63.7313 46.1578L63.7318 46.1521L63.7324 46.1463L63.733 46.1405L63.7336 46.1348L63.7341 46.129L63.7347 46.1233L63.7353 46.1175L63.7358 46.1118L63.7364 46.1061L63.737 46.1004L63.7375 46.0947L63.7381 46.089L63.7387 46.0833L63.7392 46.0776L63.7398 46.0719L63.7404 46.0663L63.7409 46.0606L63.7415 46.055L63.742 46.0494L63.7426 46.0438L63.7432 46.0382L63.7437 46.0326L63.7443 46.027L63.7448 46.0214L63.7454 46.0158L63.7459 46.0103L63.7465 46.0047L63.747 45.9992L63.7476 45.9937L63.7481 45.9882L63.7487 45.9827L63.7492 45.9772L63.7498 45.9717L63.7503 45.9662L63.7509 45.9608L63.7514 45.9553L63.7519 45.9499L63.7525 45.9445L63.753 45.9391L63.7536 45.9337L63.7541 45.9283L63.7546 45.923L63.7552 45.9176L63.7557 45.9123L63.7562 45.9069L63.7567 45.9016L63.7573 45.8963L63.7578 45.891L63.7583 45.8858L63.7588 45.8805L63.7594 45.8753L63.7599 45.87L63.7604 45.8648L63.7609 45.8596L63.7614 45.8544L63.762 45.8492L63.7625 45.8441L63.763 45.8389L63.7635 45.8338L63.764 45.8287L63.7645 45.8236L63.765 45.8185L63.7655 45.8134L63.766 45.8084L63.7665 45.8034L63.767 45.7983L63.7675 45.7933L63.768 45.7883L63.7685 45.7834L63.769 45.7784L63.7695 45.7735L63.77 45.7685L63.7705 45.7636L63.771 45.7587L63.7714 45.7539L63.7719 45.749L63.7724 45.7442L63.7729 45.7394L63.7734 45.7345L63.7738 45.7298L63.7743 45.725L63.7748 45.7202L63.7753 45.7155L63.7757 45.7108L63.7762 45.7061L63.7767 45.7014L63.7771 45.6968L63.7776 45.6921L63.778 45.6875L63.7785 45.6829L63.779 45.6783L63.7794 45.6737L63.7799 45.6692L63.7803 45.6647L63.7808 45.6602L63.7812 45.6557L63.7816 45.6512L63.7821 45.6468L63.7825 45.6423L63.783 45.6379L63.7834 45.6335L63.7838 45.6292L63.7843 45.6248L63.7847 45.6205L63.7851 45.6162L63.7856 45.6119L63.786 45.6076L63.7864 45.6034L63.7868 45.5992L63.7872 45.595L63.7877 45.5908L63.7881 45.5866L63.7885 45.5825L63.7889 45.5784L63.7893 45.5743L63.7897 45.5702L63.7901 45.5662L63.7905 45.5622L63.7909 45.5582L63.7913 45.5542L63.7917 45.5502L63.7921 45.5463L63.7925 45.5424L63.7929 45.5385L63.7932 45.5346L63.7936 45.5308L63.794 45.527L63.7944 45.5232L63.7948 45.5194L63.7951 45.5157L63.7955 45.512L63.7959 45.5083L63.7962 45.5046L63.7966 45.5009L63.797 45.4973L63.7973 45.4937L63.7977 45.4902L63.798 45.4866L63.7984 45.4831L63.7987 45.4796L63.7991 45.4761L63.7994 45.4727L63.7997 45.4692L63.8001 45.4659L63.8004 45.4625L63.8008 45.4591L63.8011 45.4558L63.8014 45.4525L63.8017 45.4493L63.8021 45.446L63.8024 45.4428L63.8027 45.4396L63.803 45.4365L63.8033 45.4333L63.8036 45.4302L63.8039 45.4272L63.8042 45.4241L63.8045 45.4211L63.8048 45.4181L63.8051 45.4151L63.8054 45.4122L63.8057 45.4093L63.806 45.4064L63.8063 45.4036L63.8066 45.4007L63.8068 45.3979L63.8071 45.3952L63.8074 45.3924L63.8077 45.3897L63.8079 45.387L63.8082 45.3844L63.8084 45.3818L63.8087 45.3792L63.809 45.3766L63.8092 45.3741L63.8095 45.3716L63.8097 45.3691L63.8099 45.3667L63.8102 45.3642L63.8104 45.3619L63.8107 45.3595L63.8109 45.3572L63.8111 45.3549L63.8113 45.3526L63.8116 45.3504L63.8118 45.3482L63.812 45.346L63.8122 45.3439L63.8124 45.3418L63.8126 45.3397L63.8128 45.3377L63.813 45.3357L63.8132 45.3337L63.8134 45.3318L63.8136 45.3299L63.8138 45.328L63.814 45.3261L63.8142 45.3243L63.8143 45.3225L63.8145 45.3208L63.8147 45.3191L63.8149 45.3174L63.815 45.3157L63.8152 45.3141L63.8153 45.3125L63.8155 45.311L63.8156 45.3095L63.8158 45.308L63.8159 45.3065L63.8161 45.3051L63.8162 45.3038L63.8163 45.3024L63.8165 45.3011L63.8166 45.2998L63.8167 45.2986L63.8168 45.2974L63.817 45.2962L63.8171 45.2951L63.8172 45.294L63.8173 45.2929L63.8174 45.2919L63.8175 45.2909L63.8176 45.2899L63.8177 45.289L63.8178 45.2881L63.8178 45.2873L63.8179 45.2865L63.818 45.2857L63.8181 45.285L63.8181 45.2842L63.8182 45.2836L63.8183 45.283L63.8183 45.2824L63.8184 45.2818L63.8184 45.2813L63.8185 45.2808L63.8185 45.2804L63.8186 45.28L63.8186 45.2796L63.8186 45.2793L63.8187 45.279L63.8187 45.2787L63.8187 45.2785L63.8187 45.2783L63.8187 45.2782L63.8188 45.2781L63.8188 45.278L63.8188 45.2778C63.82 45.2655 63.8752 44.6951 64.1233 44.1648L64.1233 44.1647C64.3798 43.6153 64.3959 43.036 64.1443 42.6189C63.9585 42.3108 63.5519 41.9632 62.6906 41.9632H46.8351C45.9739 41.9632 45.4982 42.31 45.2509 42.6189C44.9164 43.0361 44.8172 43.6153 44.9645 44.1647L44.9645 44.1648C45.1068 44.6942 45.049 45.2634 45.0472 45.2817L45.0472 45.2821L42.3926 71.9718C42.3672 72.2271 42.2329 72.5078 42.0881 72.8057L42.088 72.8058L42.0834 72.8152C41.9662 73.0569 41.8246 73.3488 41.7813 73.6339C41.7357 73.9334 41.7977 74.2303 42.089 74.4617ZM62.3319 52.0333L62.3319 52.0334L61.2015 64.8588L61.0876 64.907C61.0876 64.907 61.0876 64.907 61.0876 64.9071C61.1909 65.2051 61.3556 65.4387 61.5792 65.5975C61.8031 65.7564 62.0797 65.8359 62.3981 65.8359C62.8938 65.8359 63.4375 65.639 63.9255 65.3934C64.4158 65.1466 64.8625 64.844 65.1684 64.6188C66.5083 63.635 67.4313 62.4492 68.0192 60.8298C68.6053 59.2155 68.8567 57.1748 68.8655 54.4811C68.8698 53.1725 68.5911 52.3131 68.1781 51.7317C67.765 51.15 67.2252 50.8576 66.7311 50.6676C66.2916 50.4984 65.7324 50.4028 65.1951 50.4028C63.8606 50.4028 62.8033 50.9869 62.3319 52.0333ZM62.0599 53.5102L61.095 63.2114L62.1793 53.5094H62.06L62.0599 53.5102ZM62.4801 65.0185C63.2478 65.0185 64.3898 64.2242 64.7214 63.9803L62.8817 53.5067L61.9149 63.2271C61.8493 63.7499 61.8162 64.4168 61.8715 64.5752C61.9778 64.8817 62.1659 65.0185 62.4801 65.0185ZM45.8776 43.0878C45.7238 43.2798 45.6813 43.5776 45.7639 43.8841L63.4257 43.0878C63.2729 42.8345 62.8977 42.7813 62.6106 42.7813H46.7537C46.466 42.7813 46.0809 42.8345 45.8776 43.0878Z" fill="#00BF63" stroke="#00BF63" stroke-width="0.238702"/>
<path d="M54.0705 44.0032L54.0711 44.0032C56.4837 44.0086 58.8912 44.0632 61.2856 44.2224C62.0165 44.271 62.7469 44.3304 63.4737 44.4101L63.6474 44.4292L63.5487 44.5842C63.4839 44.6858 63.439 44.7993 63.4005 44.9247L63.3705 45.0225L63.2706 45.0195C62.6321 45 61.9922 44.9872 61.3523 44.9757L61.3522 44.9757C59.3847 44.9397 57.4128 44.9397 55.4402 44.9397C55.0157 44.9397 54.5911 44.9397 54.1665 44.9394C51.7603 44.9373 49.3526 44.9454 46.9441 44.9683C46.9439 44.9683 46.9437 44.9683 46.9436 44.9683L54.0705 44.0032ZM54.0705 44.0032C51.6512 44.0093 49.2272 44.0672 46.7968 44.2237L54.0705 44.0032Z" fill="#00BF63" stroke="#00BF63" stroke-width="0.238702"/>
<path d="M44.0517 49.0587C43.1872 49.0587 42.6572 48.383 42.6631 47.555C42.6691 46.5822 43.6915 45.8936 43.6776 44.9518C43.663 43.989 42.8365 43.3066 42.5807 42.4274C42.3837 41.753 42.3893 41.0092 42.5566 40.2937C42.9345 38.6788 44.1318 37.3078 45.7206 36.7177C47.8458 35.9281 50.0497 36.4576 51.7853 37.5167C52.5761 37.9991 53.3452 38.5306 54.2453 38.8271C55.0372 39.0878 55.7187 38.9274 56.5478 38.6782C58.4593 38.1035 60.3345 38.5616 61.7277 39.748C62.1565 40.1132 62.9709 40.8347 62.6974 41.5158C62.5643 41.8466 62.2161 41.9847 61.8945 42.0184C61.3697 42.0743 60.8292 42.0292 60.3072 42.0285C58.3718 42.0265 56.4347 42.0413 54.5002 42.0299C52.9358 42.0204 51.3569 42.0413 49.7824 42.2286C49.0815 42.3122 48.3294 42.4072 47.659 42.7009C47.3511 42.8356 47.0727 43.0546 46.8584 43.3167C46.3521 43.9351 46.4797 44.654 46.516 45.3432C46.5961 46.8388 46.0077 49.0587 44.0517 49.0587Z" fill="#FFD12F"/>
</g>
<defs>
<filter id="filter0_d_29_318" x="0.680851" y="0.680851" width="110.638" height="110.638" filterUnits="userSpaceOnUse" color-interpolation-filters="sRGB">
<feFlood flood-opacity="0" result="BackgroundImageFix"/>
<feColorMatrix in="SourceAlpha" type="matrix" values="0 0 0 0 0 0 0 0 0 0 0 0 0 0 0 0 0 0 127 0" result="hardAlpha"/>
<feOffset/>
<feGaussianBlur stdDeviation="7.65957"/>
<feComposite in2="hardAlpha" operator="out"/>
<feColorMatrix type="matrix" values="0 0 0 0 0 0 0 0 0 0.74902 0 0 0 0 0.388235 0 0 0 0.5 0"/>
<feBlend mode="normal" in2="BackgroundImageFix" result="effect1_dropShadow_29_318"/>
<feBlend mode="normal" in="SourceGraphic" in2="effect1_dropShadow_29_318" result="shape"/>
</filter>
</defs>
</svg>
