<svg width="106" height="45" viewBox="0 0 106 45" fill="none" xmlns="http://www.w3.org/2000/svg">
<path d="M93.9275 36.28C93.3495 36.28 92.8443 35.8898 92.6989 35.3309L90.8818 28.4739L89.5177 34.9039L89.1014 35.2702L88.347 35.9561C88.112 36.1657 87.8114 36.28 87.5002 36.28H83.2147C82.8343 36.28 82.4773 36.112 82.2345 35.8185L82.2211 35.8016C82.1759 35.7444 82.1364 35.6844 82.1018 35.6216L81.7088 35.9787C81.4773 36.1727 81.1852 36.28 80.8867 36.28H76.2292C75.6174 36.28 75.0924 35.8439 74.9802 35.2427L73.5011 27.4923H73.204L71.6282 34.9244L71.2084 35.2779L70.4618 35.9561C70.2268 36.1657 69.9269 36.28 69.615 36.28H65.1431C64.7635 36.28 64.4064 36.112 64.1637 35.8185L64.1502 35.8016C63.911 35.4995 63.8207 35.1135 63.9026 34.7395L68.5007 12.9872L68.5064 12.9653C68.5663 12.7218 68.6983 12.501 68.8874 12.3302L69.6608 11.6274C69.8923 11.4178 70.2049 11.2978 70.5189 11.2978C70.5274 11.2978 70.5359 11.2978 70.5436 11.2978C70.557 11.2971 70.5712 11.2971 70.5853 11.2971H75.0564C75.4361 11.2971 75.7924 11.465 76.0345 11.7572C76.28 12.055 76.3788 12.4565 76.2991 12.8312L74.7614 20.0848H74.8609L79.4386 12.5969C79.5007 12.4974 79.5755 12.4085 79.6623 12.3302L80.4364 11.6266C80.67 11.4135 80.9749 11.2964 81.2938 11.2964C81.3044 11.2964 81.3143 11.2964 81.3249 11.2971C81.3369 11.2964 81.3489 11.2964 81.3609 11.2964H86.3295C86.7762 11.2964 87.1897 11.5314 87.4184 11.9124L87.7324 11.6266C87.9674 11.4135 88.2701 11.2964 88.5855 11.2964C88.5975 11.2964 88.6095 11.2964 88.6215 11.2971C88.6335 11.2964 88.6455 11.2964 88.6575 11.2964H93.5634C94.1321 11.2964 94.6353 11.6789 94.7877 12.2272L96.5928 19.0369L97.8771 12.9801C97.9392 12.7233 98.0719 12.5003 98.2617 12.3288L99.0351 11.6259C99.2659 11.4164 99.5764 11.2957 99.8876 11.2957C99.8989 11.2957 99.9095 11.2957 99.9208 11.2964C99.9342 11.2957 99.9469 11.2957 99.9603 11.2957H104.246C104.625 11.2957 104.981 11.4636 105.223 11.7558C105.469 12.0522 105.567 12.4382 105.491 12.8143L105.489 12.8284L100.812 34.9435L100.386 35.285L99.6484 35.9554C99.412 36.1643 99.1128 36.2779 98.803 36.2779H93.9275V36.28ZM82.5605 31.9613L86.0522 15.4493L80.9332 23.8002L82.5605 31.9613Z" fill="black"/>
<path d="M104.246 11.5441C104.551 11.5441 104.838 11.6789 105.033 11.9146C105.232 12.1538 105.311 12.4657 105.249 12.7705L105.247 12.779L100.589 34.808L100.226 35.0994L99.4825 35.7747C99.2941 35.9413 99.0534 36.033 98.8029 36.033H93.9275C93.461 36.033 93.0552 35.719 92.9381 35.2688L90.855 27.4097L89.2933 34.7727L88.9383 35.0846L88.1812 35.7733C87.9935 35.9406 87.7514 36.033 87.5002 36.033H83.2146C82.9084 36.033 82.6205 35.8975 82.425 35.6611L82.413 35.6463C82.3107 35.5172 82.2422 35.3669 82.2112 35.2095C82.1942 35.218 82.1773 35.2264 82.1604 35.2342L81.5493 35.7896C81.363 35.9462 81.128 36.033 80.8859 36.033H76.2285C75.7359 36.033 75.3125 35.6816 75.2222 35.1975L73.705 27.2453H73.0036L71.4038 34.7903L71.0453 35.0924L70.2952 35.7733C70.1075 35.9406 69.8654 36.033 69.6142 36.033H65.1424C64.8361 36.033 64.5489 35.8975 64.3534 35.6611L64.3414 35.6463C64.1488 35.4036 64.0775 35.0931 64.1431 34.7924L68.7406 13.0443L68.7448 13.0281C68.7942 12.8277 68.9008 12.6506 69.0525 12.5137L69.8266 11.8101C70.0165 11.6379 70.267 11.5441 70.5182 11.5448C70.5274 11.5448 70.5365 11.5448 70.5457 11.5455C70.5584 11.5448 70.5718 11.5448 70.5852 11.5448H75.0564C75.3619 11.5448 75.6491 11.6796 75.8446 11.9153C76.0436 12.1566 76.1219 12.4777 76.0577 12.7804L74.4565 20.3325H74.9992L79.6489 12.7268C79.699 12.6471 79.759 12.5765 79.8274 12.5144L80.6015 11.8108C80.7914 11.6379 81.0376 11.5448 81.2931 11.5448C81.3044 11.5448 81.3157 11.5448 81.3263 11.5455C81.3376 11.5448 81.3488 11.5448 81.3601 11.5448H86.3288C86.6992 11.5448 87.0408 11.7445 87.2214 12.0677C87.268 12.1517 87.3026 12.2413 87.3245 12.3323L87.8982 11.8108C88.088 11.6386 88.3315 11.5448 88.5848 11.5448C88.5975 11.5448 88.6102 11.5448 88.6229 11.5455C88.6342 11.5448 88.6462 11.5448 88.6575 11.5448H93.5633C94.0213 11.5448 94.4271 11.8532 94.5498 12.2949L94.5527 12.3055L96.6196 20.1032L98.1191 13.0331C98.1678 12.8312 98.2744 12.652 98.4275 12.5144L99.2016 11.8108C99.3894 11.6401 99.6377 11.5448 99.8876 11.5448C99.8988 11.5448 99.9108 11.5448 99.9221 11.5455C99.9348 11.5448 99.9475 11.5448 99.9602 11.5448H104.246V11.5441ZM82.5534 33.1885L86.5899 14.0986L80.6721 23.7529L82.5534 33.1885ZM104.246 11.0501H99.9602C99.9468 11.0501 99.9334 11.0501 99.92 11.0508C99.9094 11.0508 99.8988 11.0508 99.8883 11.0508C99.5107 11.0508 99.1494 11.1912 98.87 11.4453L98.0959 12.1488C97.87 12.3514 97.712 12.6181 97.6393 12.9173L97.6379 12.9237L97.6365 12.93L96.5667 17.9735L95.0304 12.1785L95.0276 12.1672L95.0269 12.1651L95.0262 12.163C94.8441 11.5081 94.2429 11.0508 93.564 11.0508H88.6582C88.6462 11.0508 88.6335 11.0508 88.6215 11.0515C88.6095 11.0515 88.5975 11.0508 88.5855 11.0508C88.2087 11.0508 87.8467 11.1905 87.5665 11.4453L87.4529 11.549C87.1685 11.2357 86.7621 11.0515 86.3295 11.0515H81.3608C81.3481 11.0515 81.3354 11.0515 81.3227 11.0522C81.3129 11.0522 81.303 11.0522 81.2931 11.0522C80.912 11.0522 80.5486 11.1927 80.2692 11.4467L79.4958 12.1496C79.3934 12.2427 79.3038 12.3486 79.2311 12.465L79.2297 12.4678L79.2283 12.4706L75.2497 18.9783L76.5418 12.8842C76.6371 12.4361 76.5192 11.9569 76.2264 11.6019C75.9363 11.2519 75.5101 11.0515 75.0571 11.0515H70.5859C70.5711 11.0515 70.5563 11.0515 70.5422 11.0522C70.5344 11.0522 70.5267 11.0522 70.5189 11.0522C70.1392 11.0522 69.7758 11.192 69.4957 11.446L68.7208 12.1503C68.4971 12.3521 68.3398 12.6146 68.2664 12.9089L68.2629 12.9223L68.26 12.9336L68.2579 12.9448L63.6605 34.6908C63.5638 35.134 63.6711 35.5955 63.9554 35.954L63.9569 35.9561L63.9583 35.9582L63.9703 35.973L63.9717 35.9752L63.9731 35.9773C64.2624 36.3273 64.6893 36.5284 65.1424 36.5284H69.6142C69.9868 36.5284 70.3453 36.3915 70.624 36.1438L70.6255 36.1424L70.6269 36.141L71.3699 35.4664L71.7214 35.17L71.8512 35.0606L71.8865 34.8948L73.3465 28.0081L74.736 35.2921C74.8694 36.0076 75.4967 36.5291 76.2278 36.5291H80.8852C81.2423 36.5291 81.5909 36.4014 81.8668 36.1699L81.8739 36.1636L81.8809 36.1572L82.0587 35.9956C82.3481 36.335 82.7679 36.5291 83.2139 36.5291H87.4995C87.8721 36.5291 88.2306 36.3922 88.5093 36.1445L88.5114 36.1431L88.5135 36.1417L89.2679 35.4558L89.6193 35.1467L89.7428 35.0387L89.7767 34.8785L90.9086 29.5422L92.4611 35.3986C92.634 36.0641 93.2373 36.5305 93.9282 36.5305H98.8036C99.1741 36.5305 99.5312 36.395 99.8106 36.148L99.8135 36.1459L99.8163 36.1438L100.548 35.4791L100.899 35.1975L101.037 35.0867L101.074 34.9138L105.732 12.8849L105.734 12.8743L105.735 12.8637V12.863C105.824 12.4142 105.707 11.9555 105.414 11.6027C105.124 11.2505 104.699 11.0501 104.246 11.0501ZM81.195 23.8461L85.5144 16.7992L82.5682 30.7334L81.195 23.8461Z" fill="white"/>
<path d="M44.4035 44.7523C44.1805 44.7523 43.9624 44.6937 43.7712 44.5836C43.2913 44.3084 43.0458 43.7594 43.1622 43.2175L49.557 12.9724L49.5605 12.9547C49.6205 12.7014 49.7546 12.4756 49.9465 12.3027L50.7192 11.6005C50.9563 11.3874 51.2584 11.2703 51.571 11.2703C51.5816 11.2703 51.5921 11.2703 51.6027 11.271C51.6183 11.2703 51.6338 11.2703 51.6493 11.2703C52.0028 11.2703 52.343 11.422 52.5836 11.6859L59.3665 19.0835L67.5806 1.65198L67.5954 1.62445C67.6561 1.51225 67.7309 1.41134 67.8184 1.32313L67.8586 1.28573L68.6376 0.577943C68.8733 0.36483 69.1782 0.247688 69.4965 0.247688C69.512 0.247688 69.5275 0.247688 69.543 0.248394C69.5508 0.248394 69.5586 0.248394 69.5663 0.248394C69.6976 0.248394 69.8274 0.268858 69.9523 0.309787C70.5775 0.514432 70.9431 1.15024 70.8034 1.78958L63.8207 34.8433L63.4143 35.2518L62.6437 35.9519C62.4094 36.165 62.1074 36.2821 61.794 36.2821C61.7538 36.2821 61.7136 36.28 61.6741 36.2765C61.3262 36.2461 61.0009 36.0683 60.7849 35.7896L55.244 28.723L46.2502 43.5195L46.0286 43.7227L45.2587 44.4228C45.0209 44.6359 44.7175 44.7523 44.4035 44.7523Z" fill="black"/>
<path d="M69.4965 0.493963C69.5113 0.493963 69.5261 0.493963 69.541 0.494668C69.5494 0.494668 69.5579 0.494668 69.5664 0.494668C69.6715 0.494668 69.7759 0.510899 69.8761 0.54336C70.3814 0.708487 70.675 1.2201 70.5621 1.73524L63.5943 34.7191L63.2435 35.0712L62.4779 35.767C62.2888 35.9385 62.0453 36.033 61.7941 36.033C61.7623 36.033 61.7299 36.0316 61.6981 36.0281C61.4151 36.0034 61.1547 35.8608 60.9804 35.6357L55.2186 28.2869L46.0569 43.3607L45.8614 43.54L45.0922 44.2393C44.8996 44.4122 44.6561 44.5053 44.4035 44.5053C44.2243 44.5053 44.0486 44.4587 43.8947 44.3698C43.5066 44.1475 43.3097 43.7072 43.4036 43.269L49.7984 13.0232L49.8005 13.0119C49.8492 12.8072 49.9571 12.6252 50.1117 12.4862L50.8851 11.7833C51.0785 11.6097 51.3205 11.5173 51.5703 11.5173C51.5816 11.5173 51.5922 11.5173 51.6035 11.518C51.6183 11.5173 51.6338 11.5173 51.6486 11.5173C51.9309 11.5173 52.2033 11.6358 52.4002 11.8518L59.4322 19.521L67.8015 1.76276L67.8135 1.74018C67.8622 1.65056 67.9228 1.5687 67.9941 1.49672L68.0273 1.46567L68.8035 0.760001C68.999 0.583583 69.2467 0.493963 69.4965 0.493963ZM69.4965 -7.62939e-06C69.1168 -7.62939e-06 68.7527 0.139715 68.4719 0.393757L67.6949 1.10014L67.6921 1.10225L67.6893 1.10437L67.6561 1.13542L67.649 1.14177L67.6427 1.14812C67.539 1.25327 67.45 1.37252 67.3788 1.50307L67.3781 1.50519L67.3774 1.50731L67.3654 1.52989L67.3597 1.54047L67.3548 1.55247L59.2995 18.6453L52.765 11.5187C52.4792 11.2047 52.072 11.024 51.6493 11.024C51.6331 11.024 51.6169 11.024 51.6006 11.0247C51.5908 11.0247 51.5809 11.0247 51.571 11.0247C51.1977 11.0247 50.8371 11.1637 50.5555 11.4171L49.78 12.122C49.5521 12.3274 49.3926 12.5962 49.3206 12.899L49.3178 12.9103L49.3157 12.9216L49.3143 12.9272L42.9209 43.1674C42.7826 43.8138 43.0754 44.47 43.6498 44.7989C43.8764 44.9301 44.1382 45 44.4042 45C44.7789 45 45.1409 44.861 45.4232 44.6076L46.1945 43.9062L46.3914 43.7256L46.4429 43.6783L46.4796 43.6183L55.2708 29.1541L60.5923 35.9413C60.8485 36.2715 61.2352 36.4839 61.6537 36.5206C61.7002 36.5249 61.7482 36.5277 61.7948 36.5277C62.1695 36.5277 62.5301 36.388 62.8103 36.1339L63.5759 35.4381L63.5851 35.4297L63.5935 35.4212L63.9443 35.0691L64.0473 34.9653L64.0776 34.8221L71.0447 1.84109C71.2113 1.07755 70.7752 0.318956 70.0293 0.0747936C69.879 0.0261022 69.723 0.00140371 69.5656 0.00140371C69.5586 0.00140371 69.5515 0.00140371 69.5445 0.00140371C69.5297 -7.62939e-06 69.5134 -7.62939e-06 69.4965 -7.62939e-06Z" fill="white"/>
<path d="M38.1901 36.28C37.8083 36.28 37.4505 36.1106 37.2085 35.8157L37.1951 35.7987C36.9601 35.5016 36.8705 35.1213 36.9467 34.7529L41.5752 13.0084C41.6281 12.7529 41.758 12.5229 41.9506 12.3443L42.7544 11.6132C42.9908 11.4079 43.2864 11.2971 43.5913 11.2971C43.604 11.2971 43.616 11.2971 43.6287 11.2978C43.6407 11.2971 43.6527 11.2971 43.6647 11.2971H48.1358C48.5155 11.2971 48.8718 11.4651 49.1139 11.7572L49.1301 11.7777C49.3644 12.0748 49.4547 12.4537 49.3799 12.8199L44.6851 34.8807L44.273 35.261L43.4812 35.9801C43.2512 36.1734 42.9597 36.28 42.6619 36.28H38.1901Z" fill="black"/>
<path d="M43.5905 11.5441C43.6032 11.5441 43.6166 11.5441 43.6293 11.5448C43.6413 11.5441 43.6526 11.5441 43.6639 11.5441H48.1351C48.4406 11.5441 48.7278 11.6789 48.9233 11.9146L48.9381 11.9329C49.1251 12.17 49.1978 12.4749 49.1378 12.7705L49.1357 12.7804L44.4599 34.7522L44.1057 35.0797L43.3224 35.791C43.1368 35.9469 42.9025 36.033 42.6619 36.033H38.19C37.8823 36.033 37.5944 35.8968 37.399 35.659L37.387 35.6442C37.1993 35.4064 37.1266 35.1001 37.188 34.803L41.8165 13.0599C41.8595 12.8538 41.964 12.6689 42.1185 12.525L42.1284 12.5158L42.9201 11.796C43.1093 11.6323 43.3478 11.5441 43.5905 11.5441ZM43.5905 11.0501C43.2264 11.0501 42.8729 11.1828 42.5962 11.4234L42.592 11.4269L42.5878 11.4305L41.796 12.1503L41.7939 12.1517L41.7918 12.1531L41.7819 12.1623C41.5518 12.3768 41.3966 12.652 41.3324 12.9583L36.7046 34.6993C36.6128 35.1418 36.7208 35.5969 36.9988 35.949L37.001 35.9512L37.0031 35.9533L37.0151 35.9681L37.0165 35.9695L37.0179 35.9709C37.3072 36.323 37.7349 36.5249 38.1907 36.5249H42.6626C43.0189 36.5249 43.3661 36.3979 43.6406 36.1671L43.6477 36.1607L43.6547 36.1544L44.438 35.4431L44.4395 35.4417L44.4409 35.4403L44.7951 35.1128L44.9101 35.0063L44.9426 34.8531L49.6184 12.8813L49.6205 12.8715L49.6212 12.8693L49.6219 12.8672C49.7108 12.429 49.6029 11.9767 49.3262 11.6252L49.3241 11.6231L49.322 11.621L49.3072 11.6027L49.3051 11.5998L49.3029 11.5977C49.0136 11.2484 48.5874 11.0487 48.1344 11.0487H43.6632C43.6512 11.0487 43.6392 11.0487 43.6265 11.0494C43.6152 11.0501 43.6032 11.0501 43.5905 11.0501Z" fill="white"/>
<path d="M30.5822 36.28C29.952 36.28 29.4107 35.8086 29.3239 35.1834L28.5124 29.2931H27.3763L26.2754 34.5603C26.1985 34.9392 25.9473 35.266 25.6001 35.4396L25.0066 35.9787C24.7752 36.1727 24.483 36.28 24.1845 36.28H19.7134C19.333 36.28 18.976 36.1121 18.7332 35.8185L18.7163 35.7973C18.4848 35.5038 18.3945 35.1269 18.4672 34.7614L18.47 34.7466L23.066 13.0098C23.1183 12.7564 23.2481 12.5257 23.4415 12.3443L24.2304 11.6266C24.4633 11.4142 24.7674 11.2964 25.0878 11.2964C25.0991 11.2964 25.1104 11.2964 25.1217 11.2971C25.133 11.2964 25.1442 11.2964 25.1555 11.2964H37.7631C38.1526 11.2964 38.5146 11.4707 38.7574 11.7755L40.6239 14.1388C40.856 14.4373 40.9457 14.817 40.8701 15.1825L38.7552 25.232C38.691 25.5122 38.5365 25.762 38.3191 25.9391L37.538 26.5876C37.5189 26.6052 37.4992 26.6229 37.4794 26.6398L36.3242 27.5981L37.3065 34.755L36.7151 35.2716L35.9615 35.9561C35.7251 36.165 35.4259 36.2786 35.1161 36.2786H30.5822V36.28ZM31.6788 21.9478L32.3802 18.6417H29.6358L28.9309 21.9478H31.6788Z" fill="black"/>
<path d="M37.7638 11.5441C38.0778 11.5441 38.3692 11.6845 38.5647 11.9301L40.4305 14.2927C40.6182 14.534 40.6895 14.8389 40.6288 15.1338L38.5139 25.1819C38.4631 25.4042 38.3389 25.6053 38.1632 25.7486L37.375 26.4027C37.3566 26.4197 37.3383 26.4366 37.3192 26.4528L36.061 27.4965L37.044 34.6577L36.5528 35.0867L35.7957 35.7747C35.6072 35.9413 35.3666 36.033 35.1161 36.033H30.5822C30.0741 36.033 29.6387 35.6534 29.5688 35.1495L28.7276 29.0462H27.1759L26.0341 34.5095C25.9678 34.8355 25.749 35.0994 25.4611 35.2328L24.8486 35.7896C24.6623 35.9462 24.4273 36.033 24.1852 36.033H19.7141C19.4078 36.033 19.1199 35.8975 18.9244 35.6611L18.911 35.6442C18.724 35.4071 18.6514 35.1022 18.7113 34.8066L18.7127 34.7981L23.3088 13.0613C23.3504 12.858 23.4556 12.671 23.6115 12.525L23.6214 12.5158L24.3976 11.8101C24.5868 11.6372 24.8352 11.5441 25.0885 11.5441C25.1005 11.5441 25.1125 11.5441 25.1245 11.5448C25.1351 11.5441 25.1457 11.5441 25.1562 11.5441H37.7638ZM28.626 22.1948H31.8785L32.6851 18.3947H29.4361L28.626 22.1948ZM37.7638 11.0501H25.1562C25.1442 11.0501 25.133 11.0501 25.121 11.0508C25.1104 11.0508 25.0991 11.0508 25.0885 11.0508C24.7067 11.0508 24.3433 11.1912 24.0639 11.446L23.289 12.151L23.2869 12.1531L23.2848 12.1552L23.2749 12.1644C23.042 12.3824 22.8868 12.6583 22.8247 12.9632L18.2294 34.6972L18.2272 34.7078L18.2258 34.7184V34.7191C18.1404 35.1545 18.2484 35.6033 18.5236 35.9519L18.5377 35.9695L18.5413 35.9737L18.5448 35.978C18.8341 36.328 19.2611 36.5291 19.7148 36.5291H24.1859C24.543 36.5291 24.8916 36.4014 25.1675 36.1699L25.1746 36.1636L25.1816 36.1572L25.7441 35.6463C26.1421 35.4346 26.4293 35.0528 26.5189 34.6104L27.5781 29.5423H28.2972L29.0798 35.2194C29.1835 35.9667 29.8292 36.5291 30.5822 36.5291H35.1161C35.4866 36.5291 35.8436 36.3936 36.1231 36.1466L36.1259 36.1445L36.1287 36.1424L36.8824 35.4579L37.37 35.0317L37.5704 34.8567L37.5344 34.5927L36.5888 27.704L37.6353 26.8353L37.6382 26.8332L37.6403 26.8311C37.6607 26.8134 37.6812 26.7951 37.701 26.7767L38.4779 26.1317C38.7369 25.92 38.9211 25.6222 38.9966 25.2941L38.9973 25.2899L38.998 25.2856L41.1129 15.2376C41.2032 14.7986 41.0967 14.3456 40.8214 13.9914L40.82 13.9899L40.8186 13.9885L38.9528 11.6245C38.6621 11.259 38.2288 11.0501 37.7638 11.0501ZM29.8363 18.8887H32.0754L31.4784 21.7008H29.2364L29.8363 18.8887Z" fill="white"/>
<path d="M1.5176 36.28C1.13583 36.28 0.778052 36.1106 0.536007 35.8157L0.526127 35.8044C0.284788 35.5002 0.195167 35.1149 0.275614 34.7423L4.87448 12.9872L4.88012 12.9653C4.94011 12.7226 5.07136 12.5024 5.25836 12.333L6.0346 11.6274C6.26606 11.4149 6.57162 11.2971 6.89341 11.2971C6.90399 11.2971 6.91387 11.2971 6.92446 11.2978C6.93645 11.2971 6.94774 11.2971 6.95974 11.2971H19.5673C19.9568 11.2971 20.3195 11.4721 20.5609 11.7763L22.4309 14.1445C22.6624 14.4416 22.7499 14.8212 22.6729 15.1875L19.0719 32.1998C19.0147 32.4821 18.8588 32.7411 18.633 32.9252L17.8722 33.554C17.8433 33.5829 17.8123 33.6104 17.7791 33.6373L14.9338 35.9893C14.7066 36.177 14.4194 36.28 14.1244 36.28H1.5176ZM11.9919 28.8726L14.1519 18.7038H11.4393L9.27434 28.8726H11.9919Z" fill="black"/>
<path d="M19.5674 11.5441C19.8807 11.5441 20.1728 11.6845 20.3676 11.9301L22.2376 14.2976C22.4225 14.5354 22.4938 14.841 22.4317 15.1367L18.8306 32.149C18.7841 32.3798 18.6592 32.5858 18.4771 32.7347L17.7058 33.3719C17.6804 33.398 17.6536 33.422 17.6253 33.4446L14.7765 35.7987C14.5938 35.9497 14.3623 36.033 14.1245 36.033H1.51767C1.21 36.033 0.922087 35.8968 0.726615 35.659L0.71603 35.6463C0.524088 35.4043 0.452109 35.0945 0.517031 34.7946L5.11519 13.0443L5.11942 13.0281C5.16882 12.8291 5.27467 12.652 5.42498 12.5158L6.20122 11.8101C6.39034 11.6365 6.63873 11.5441 6.89348 11.5441C6.90477 11.5441 6.91606 11.5441 6.92735 11.5448C6.93794 11.5441 6.94923 11.5441 6.95982 11.5441H19.5674ZM8.96957 29.1196H12.1917L14.4569 18.4568H11.2397L8.96957 29.1196ZM19.5674 11.0501H6.95982C6.94782 11.0501 6.93582 11.0501 6.92312 11.0508C6.91324 11.0508 6.90336 11.0508 6.89348 11.0508C6.5096 11.0508 6.14547 11.1912 5.86673 11.4467L5.0919 12.151C4.86962 12.3521 4.71366 12.6139 4.64027 12.9067L4.63674 12.9201L4.63392 12.9314L4.6318 12.9427L0.0343513 34.6929C-0.06162 35.1354 0.0456421 35.5962 0.329322 35.954L0.332851 35.9589L0.337085 35.9639L0.346258 35.9752C0.635584 36.3266 1.06252 36.5277 1.51767 36.5277H14.1245C14.4766 36.5277 14.8203 36.4042 15.0913 36.1805L17.9372 33.8285C17.9732 33.7996 18.0071 33.7699 18.0389 33.7382L18.7918 33.1158C19.0593 32.897 19.2456 32.5886 19.3147 32.2492L22.9151 15.239C23.0068 14.8008 22.9024 14.3477 22.6278 13.9942L22.6264 13.9928L22.625 13.9914L20.755 11.6238C20.4664 11.259 20.0331 11.0501 19.5674 11.0501ZM11.6398 18.9508H13.8472L11.7916 28.6256H9.57998L11.6398 18.9508Z" fill="white"/>
<path d="M105.01 11.9618C104.815 11.7262 104.527 11.5914 104.223 11.5914H99.9371C99.9244 11.5914 99.9117 11.5914 99.899 11.5921C99.6372 11.5829 99.3747 11.6789 99.1785 11.8574L98.4044 12.561C98.2512 12.6986 98.1447 12.8778 98.096 13.0796L96.5964 20.1498L94.5295 12.3521L94.5267 12.3415C94.4039 11.8997 93.9982 11.5914 93.5402 11.5914H88.6343C88.6231 11.5914 88.6111 11.5914 88.5998 11.5921C88.333 11.5822 88.074 11.6768 87.875 11.8574L87.3013 12.3789C87.2795 12.2879 87.2449 12.1982 87.1983 12.1143C87.0177 11.7911 86.6761 11.5914 86.3056 11.5914H81.337C81.3257 11.5914 81.3144 11.5914 81.3031 11.5921C81.0364 11.5836 80.7767 11.6768 80.5784 11.8574L79.8043 12.561C79.7358 12.6231 79.6758 12.6936 79.6257 12.7734L74.9761 20.3791H74.4334L76.0346 12.827C76.0988 12.5243 76.0205 12.2032 75.8215 11.9618C75.626 11.7262 75.3388 11.5914 75.0332 11.5914H70.5621C70.5487 11.5914 70.5353 11.5914 70.5226 11.5921C70.2622 11.585 70.0004 11.6789 69.8035 11.8574L69.0294 12.561C68.8776 12.6979 68.7711 12.875 68.7217 13.0754L68.7175 13.0916L64.12 34.8397C64.0544 35.1403 64.1257 35.4508 64.3183 35.6936L64.3303 35.7084C64.5258 35.9448 64.813 36.0803 65.1192 36.0803H69.5911C69.8423 36.0803 70.0843 35.9879 70.2721 35.8206L71.0222 35.1396L71.3807 34.8376L72.9804 27.2926H73.6819L75.1991 35.2448C75.2894 35.7289 75.7128 36.0803 76.2053 36.0803H80.8628C81.1048 36.0803 81.3398 35.9935 81.5261 35.8368L82.1372 35.2815C82.1542 35.2737 82.1711 35.2652 82.188 35.2568C82.2191 35.4141 82.2875 35.5645 82.3899 35.6936L82.4018 35.7084C82.5973 35.9448 82.8852 36.0803 83.1915 36.0803H87.477C87.7283 36.0803 87.9703 35.9879 88.158 35.8206L88.9152 35.1319L89.2702 34.82L90.8318 27.457L92.9149 35.3161C93.0321 35.7663 93.4379 36.0803 93.9043 36.0803H98.7798C99.0303 36.0803 99.2709 35.9886 99.4594 35.822L100.202 35.1467L100.566 34.8553L105.224 12.8263L105.225 12.8178C105.288 12.513 105.208 12.2011 105.01 11.9618ZM80.649 23.8002L86.5667 14.1459L82.5303 33.2357L80.649 23.8002Z" fill="black"/>
<path d="M70.5388 1.78254L63.571 34.7663L63.2203 35.1185L62.4546 35.8143C62.2415 36.0076 61.9586 36.1029 61.6749 36.0754C61.3919 36.0507 61.1315 35.9081 60.9572 35.683L55.1954 28.3341L46.0337 43.408L45.8382 43.5872L45.069 44.2866C44.8764 44.4595 44.6329 44.5526 44.3803 44.5526C44.201 44.5526 44.0253 44.506 43.8715 44.4171C43.4834 44.1948 43.2865 43.7545 43.3803 43.3163L49.7751 13.0705L49.7773 13.0592C49.8259 12.8545 49.9339 12.6725 50.0885 12.5334L50.8619 11.8306C51.0637 11.6492 51.3184 11.5568 51.5802 11.5653C51.8787 11.5519 52.1695 11.6711 52.3769 11.899L59.409 19.5683L67.7782 1.81006L67.7902 1.78747C67.8389 1.69785 67.8996 1.616 67.9709 1.54402L68.0041 1.51297L68.7803 0.807296C68.9871 0.620293 69.2531 0.530673 69.5177 0.541964C69.6313 0.539141 69.7442 0.555371 69.8529 0.590655C70.3582 0.755782 70.6517 1.26739 70.5388 1.78254Z" fill="black"/>
<path d="M49.1145 12.8178L49.1124 12.8277L44.4366 34.7995L44.0823 35.1269L43.299 35.8383C43.1134 35.9942 42.8792 36.0803 42.6385 36.0803H38.1667C37.859 36.0803 37.5711 35.9441 37.3756 35.7063L37.3636 35.6915C37.1759 35.4537 37.1032 35.1474 37.1646 34.8503L41.7931 13.1072C41.8362 12.9011 41.9406 12.7162 42.0952 12.5723L42.105 12.5631L42.8968 11.8433C43.0958 11.6704 43.3498 11.5822 43.606 11.5921C43.618 11.5914 43.6293 11.5914 43.6406 11.5914H48.1117C48.4173 11.5914 48.7045 11.7262 48.9 11.9619L48.9148 11.9802C49.1018 12.2173 49.1745 12.5222 49.1145 12.8178Z" fill="black"/>
<path d="M40.4072 14.34L38.5414 11.9774C38.3459 11.7318 38.0545 11.5914 37.7405 11.5914H25.1329C25.1224 11.5914 25.1118 11.5914 25.1012 11.5921C24.8351 11.5829 24.5726 11.6761 24.3743 11.8574L23.5981 12.5631L23.5882 12.5723C23.4323 12.7183 23.3271 12.9053 23.2855 13.1086L18.6894 34.8454L18.688 34.8538C18.6281 35.1495 18.7007 35.4544 18.8877 35.6915L18.9012 35.7084C19.0966 35.9448 19.3845 36.0803 19.6908 36.0803H24.1619C24.404 36.0803 24.639 35.9935 24.8253 35.8368L25.4378 35.2801C25.7257 35.1467 25.9445 34.8828 26.0108 34.5568L27.1526 29.0934H28.7043L29.5455 35.1968C29.6154 35.7006 30.0508 36.0803 30.5589 36.0803H35.0928C35.3433 36.0803 35.5839 35.9886 35.7724 35.822L36.5295 35.134L37.0207 34.7049L36.0377 27.5438L37.2959 26.5001C37.315 26.4839 37.3333 26.4669 37.3517 26.45L38.1399 25.7958C38.3156 25.6526 38.4398 25.4515 38.4906 25.2292L40.6055 15.1811C40.6662 14.8862 40.5949 14.5813 40.4072 14.34ZM32.6618 18.442L31.8552 22.2421H28.6027L29.4128 18.442H32.6618Z" fill="black"/>
<path d="M22.2144 14.3449L20.3443 11.9774C20.1496 11.7318 19.8574 11.5914 19.5441 11.5914H6.93657C6.92598 11.5914 6.91469 11.5914 6.9041 11.5921C6.63736 11.5836 6.37556 11.6761 6.17797 11.8574L5.40173 12.5631C5.25142 12.6993 5.14557 12.8764 5.09617 13.0754L5.09194 13.0916L0.493781 34.8418C0.428859 35.1418 0.500837 35.4515 0.69278 35.6936L0.703365 35.7063C0.898836 35.9441 1.18675 36.0803 1.49442 36.0803H14.1013C14.3391 36.0803 14.5705 35.997 14.7533 35.846L17.6021 33.4919C17.6303 33.4693 17.6571 33.4453 17.6825 33.4192L18.4538 32.782C18.6359 32.6331 18.7608 32.427 18.8074 32.1963L22.4084 15.1839C22.4705 14.8883 22.3992 14.5827 22.2144 14.3449ZM8.94632 29.1668L11.2165 18.5041H14.4336L12.1684 29.1668H8.94632Z" fill="black"/>
<path d="M14.1012 35.0564H1.49438L6.08972 13.3203L6.86596 12.6146L20.5602 15.68L16.9585 32.6966L14.1012 35.0564ZM9.69218 17.4809L6.83562 30.8957H12.3631L12.9531 30.3989L15.5923 17.9777L15.1887 17.4809H9.69218ZM24.1627 35.0564H19.6908L24.2869 13.3196L25.0631 12.6139L38.7574 15.6793L36.6453 25.7097L34.0993 27.8211L35.8691 34.3507L35.0928 35.0564H30.5589L29.5964 28.0695H25.6213L24.9382 34.3507L24.1627 35.0564ZM27.8886 17.4188L26.4914 23.971H32.0189L32.6399 23.4742L33.8198 17.9156L33.4162 17.4188H27.8886ZM42.6386 35.0564H38.1667L42.7938 13.3196L43.5701 12.6139L47.2657 13.3196L43.4148 34.3507L42.6386 35.0564ZM69.591 35.0564H65.1192L69.7152 13.3196L70.4915 12.6139L74.1871 13.3196L72.3241 22.1073H75.1185L80.4908 13.3196L81.2671 12.6139L85.4595 13.3196L78.721 24.3118L81.6397 34.35L80.8634 35.0557H76.2053L74.5286 26.2679H71.4547L70.368 34.35L69.591 35.0564ZM87.477 35.0564H83.1914L87.7875 13.3196L88.5637 12.6139L92.694 13.3196L96.1095 26.2065H96.3579L99.0902 13.3196L99.8665 12.6139L103.376 13.3196L99.556 34.3507L98.7797 35.0564H93.9042L90.4888 22.1694H90.2093L88.2532 34.3507L87.477 35.0564ZM45.1571 42.8237L54.8517 26.2376L61.7658 35.0564L62.5421 34.3507L69.4682 1.56377L68.692 2.26944L59.1774 22.458L51.5498 12.5878L50.7736 13.2934L44.3802 43.5294L45.1571 42.8237Z" fill="#046F3B"/>
<path d="M45.1571 42.8237L54.8516 26.2376L61.7658 35.0564L62.542 34.3507L69.4682 1.56377L68.6919 2.26944L59.1774 22.458L51.5498 12.5878L50.7735 13.2934L44.3801 43.5294L45.1571 42.8237Z" fill="#9B7F19"/>
<path d="M14.9481 34.3507H2.34131L6.93664 12.6146H19.5442L21.4072 14.9744L17.8054 31.9909L14.9481 34.3507ZM10.5391 16.7752L7.68254 30.1901H13.2101L13.8 29.6933L16.4392 17.272L16.0356 16.7752H10.5391ZM25.0096 34.3507H20.5378L25.1338 12.6139H37.7413L39.6043 14.9736L37.4922 25.0041L34.9462 27.1154L35.9398 34.3507H31.4058L30.4433 27.3638H26.4682L25.0096 34.3507ZM28.7356 16.7131L27.3383 23.2653H32.8659L33.4868 22.7685L34.6667 17.2099L34.2631 16.7131H28.7356ZM43.4855 34.3507H39.0137L43.6408 12.6139H48.1126L43.4855 34.3507ZM70.4379 34.3507H65.9661L70.5621 12.6139H75.034L73.171 21.4016H75.9655L81.3377 12.6139H86.3064L79.5679 23.6061L81.7103 34.35H77.0522L75.3755 25.5623H72.3016L70.4379 34.3507ZM88.3239 34.3507H84.0384L88.6344 12.6139H93.5409L96.9564 25.5009H97.2048L99.9371 12.6139H104.223L99.6266 34.3507H94.7511L91.3357 21.4637H91.0563L88.3239 34.3507ZM55.6986 25.5319L62.6127 34.3507L69.5389 1.56377L60.0243 21.7523L51.6205 12.5878L45.2271 42.8237L55.6986 25.5319Z" fill="#00BF63" stroke="black" stroke-width="0.219542" stroke-miterlimit="10" stroke-linecap="round" stroke-linejoin="round"/>
<path d="M55.6985 25.5319L62.6127 34.3507L69.5389 1.56377L60.0243 21.7523L51.6204 12.5878L45.2271 42.8237L55.6985 25.5319Z" fill="#FFD12F" stroke="#231F20" stroke-width="0.219542" stroke-miterlimit="10" stroke-linecap="round" stroke-linejoin="round"/>
</svg>
