<svg width="310" height="93" viewBox="0 0 310 93" fill="none" xmlns="http://www.w3.org/2000/svg">
<path d="M286.593 73.1413C285.476 73.1413 284.499 72.3869 284.218 71.3063L280.705 58.0494L278.068 70.4809L277.263 71.189L275.804 72.5151C275.35 72.9203 274.769 73.1413 274.167 73.1413H265.882C265.146 73.1413 264.456 72.8166 263.987 72.2491L263.961 72.2163C263.874 72.1058 263.797 71.9899 263.73 71.8684L262.97 72.5588C262.523 72.934 261.958 73.1413 261.381 73.1413H252.377C251.194 73.1413 250.179 72.2982 249.962 71.1358L247.102 56.1517H246.528L243.481 70.5205L242.67 71.204L241.226 72.5151C240.772 72.9203 240.192 73.1413 239.589 73.1413H230.943C230.209 73.1413 229.519 72.8166 229.05 72.2491L229.024 72.2163C228.561 71.6324 228.387 70.8861 228.545 70.1631L237.435 28.1085L237.446 28.0662C237.562 27.5956 237.817 27.1685 238.182 26.8384L239.678 25.4795C240.125 25.0743 240.73 24.8424 241.337 24.8424C241.353 24.8424 241.369 24.8424 241.384 24.8424C241.41 24.841 241.438 24.841 241.465 24.841H250.109C250.843 24.841 251.532 25.1657 252 25.7306C252.475 26.3063 252.666 27.0826 252.512 27.807L249.539 41.8307H249.731L258.581 27.3541C258.701 27.1617 258.846 26.9898 259.014 26.8384L260.511 25.4782C260.962 25.0662 261.552 24.8397 262.168 24.8397C262.189 24.8397 262.208 24.8397 262.228 24.841C262.251 24.8397 262.275 24.8397 262.298 24.8397H271.904C272.767 24.8397 273.567 25.294 274.009 26.0307L274.616 25.4782C275.07 25.0662 275.656 24.8397 276.265 24.8397C276.289 24.8397 276.312 24.8397 276.335 24.841C276.358 24.8397 276.381 24.8397 276.405 24.8397H285.889C286.989 24.8397 287.962 25.5791 288.256 26.6392L291.746 39.8047L294.229 28.0949C294.349 27.5983 294.606 27.1672 294.973 26.8357L296.468 25.4768C296.914 25.0716 297.514 24.8383 298.116 24.8383C298.138 24.8383 298.158 24.8383 298.18 24.8397C298.206 24.8383 298.231 24.8383 298.257 24.8383H306.542C307.275 24.8383 307.964 25.163 308.432 25.7278C308.906 26.3008 309.096 27.0471 308.95 27.7743L308.945 27.8016L299.903 70.5573L299.079 71.2177L297.654 72.5137C297.197 72.9176 296.618 73.1372 296.019 73.1372H286.593V73.1413ZM264.617 64.7918L271.368 32.8686L261.471 49.0137L264.617 64.7918Z" fill="black"/>
<path d="M306.542 25.3186C307.131 25.3186 307.687 25.5791 308.065 26.0348C308.448 26.4973 308.601 27.1003 308.481 27.6897L308.478 27.7061L299.472 70.2954L298.77 70.8589L297.333 72.1645C296.969 72.4865 296.504 72.6638 296.019 72.6638H286.593C285.691 72.6638 284.907 72.0567 284.681 71.1863L280.653 55.9921L277.634 70.2272L276.948 70.8302L275.484 72.1618C275.121 72.4851 274.653 72.6638 274.167 72.6638H265.882C265.29 72.6638 264.733 72.4019 264.355 71.9449L264.332 71.9162C264.134 71.6665 264.002 71.3759 263.942 71.0717C263.909 71.0881 263.876 71.1044 263.844 71.1194L262.662 72.1932C262.302 72.496 261.848 72.6638 261.38 72.6638H252.375C251.423 72.6638 250.604 71.9844 250.43 71.0485L247.497 55.6742H246.14L243.048 70.2613L242.355 70.8452L240.904 72.1618C240.541 72.4851 240.073 72.6638 239.588 72.6638H230.942C230.35 72.6638 229.795 72.4019 229.417 71.9449L229.394 71.9162C229.021 71.4469 228.883 70.8466 229.01 70.2654L237.899 28.2191L237.907 28.1877C238.002 27.8002 238.208 27.4578 238.502 27.1931L239.998 25.8329C240.365 25.5 240.85 25.3186 241.335 25.3199C241.353 25.3199 241.371 25.3199 241.389 25.3213C241.413 25.3199 241.439 25.3199 241.465 25.3199H250.109C250.7 25.3199 251.255 25.5805 251.633 26.0362C252.018 26.5028 252.169 27.1235 252.045 27.7088L248.95 42.3095H249.999L258.988 27.6051C259.085 27.451 259.201 27.3145 259.333 27.1945L260.83 25.8343C261.197 25.5 261.673 25.3199 262.167 25.3199C262.189 25.3199 262.211 25.3199 262.231 25.3213C262.253 25.3199 262.275 25.3199 262.296 25.3199H271.902C272.619 25.3199 273.279 25.706 273.628 26.3309C273.718 26.4932 273.785 26.6665 273.828 26.8425L274.937 25.8343C275.304 25.5014 275.774 25.3199 276.264 25.3199C276.289 25.3199 276.313 25.3199 276.338 25.3213C276.36 25.3199 276.383 25.3199 276.405 25.3199H285.889C286.775 25.3199 287.559 25.9161 287.797 26.7702L287.802 26.7906L291.798 41.8661L294.697 28.1972C294.791 27.807 294.997 27.4605 295.293 27.1945L296.79 25.8343C297.153 25.5041 297.633 25.3199 298.116 25.3199C298.138 25.3199 298.161 25.3199 298.183 25.3213C298.208 25.3199 298.232 25.3199 298.257 25.3199H306.542V25.3186ZM264.603 67.1643L272.407 30.2573L260.966 48.9223L264.603 67.1643ZM306.542 24.3636H298.257C298.231 24.3636 298.205 24.3636 298.179 24.3649C298.158 24.3649 298.138 24.3649 298.117 24.3649C297.388 24.3649 296.689 24.6364 296.149 25.1276L294.652 26.4878C294.216 26.8793 293.91 27.395 293.769 27.9735L293.767 27.9858L293.764 27.998L291.696 37.7487L288.726 26.5451L288.72 26.5232L288.719 26.5191L288.717 26.5151C288.365 25.249 287.203 24.3649 285.891 24.3649H276.406C276.383 24.3649 276.358 24.3649 276.335 24.3663C276.312 24.3663 276.289 24.3649 276.266 24.3649C275.537 24.3649 274.837 24.6351 274.295 25.1276L274.076 25.3281C273.526 24.7224 272.74 24.3663 271.904 24.3663H262.298C262.273 24.3663 262.249 24.3663 262.224 24.3676C262.205 24.3676 262.186 24.3676 262.167 24.3676C261.43 24.3676 260.728 24.6391 260.187 25.1303L258.692 26.4891C258.494 26.6692 258.321 26.8739 258.18 27.099L258.178 27.1044L258.175 27.1099L250.483 39.6915L252.981 27.9094C253.165 27.043 252.937 26.1167 252.371 25.4304C251.81 24.7537 250.986 24.3663 250.111 24.3663H241.466C241.438 24.3663 241.409 24.3663 241.382 24.3676C241.367 24.3676 241.352 24.3676 241.337 24.3676C240.603 24.3676 239.9 24.6378 239.358 25.1289L237.861 26.4905C237.428 26.8807 237.124 27.3882 236.982 27.9571L236.975 27.983L236.97 28.0049L236.966 28.0267L228.077 70.0689C227.89 70.9257 228.098 71.818 228.647 72.511L228.65 72.5151L228.653 72.5192L228.676 72.5479L228.679 72.552L228.681 72.5561C229.241 73.2327 230.066 73.6216 230.942 73.6216H239.588C240.308 73.6216 241.001 73.3569 241.54 72.878L241.543 72.8753L241.545 72.8726L242.982 71.5683L243.661 70.9953L243.913 70.7838L243.981 70.4632L246.803 57.149L249.49 71.2313C249.748 72.6147 250.96 73.6229 252.374 73.6229H261.378C262.069 73.6229 262.743 73.376 263.276 72.9285L263.29 72.9162L263.303 72.904L263.647 72.5915C264.206 73.2478 265.018 73.6229 265.88 73.6229H274.166C274.886 73.6229 275.579 73.3583 276.118 72.8794L276.122 72.8767L276.126 72.8739L277.585 71.5478L278.264 70.9503L278.503 70.7415L278.568 70.4318L280.757 60.115L283.758 71.4373C284.093 72.7239 285.259 73.6257 286.595 73.6257H296.021C296.737 73.6257 297.427 73.3637 297.967 72.8862L297.973 72.8821L297.978 72.878L299.393 71.5929L300.073 71.0485L300.339 70.8343L300.41 70.5001L309.415 27.9107L309.419 27.8903L309.422 27.8698V27.8684C309.593 27.0007 309.368 26.114 308.801 25.4318C308.241 24.751 307.418 24.3636 306.542 24.3636ZM261.977 49.1024L270.328 35.4785L264.632 62.4179L261.977 49.1024Z" fill="white"/>
<path d="M190.847 89.5211C190.416 89.5211 189.994 89.4079 189.624 89.1951C188.697 88.663 188.222 87.6016 188.447 86.5538L200.81 28.0799L200.817 28.0458C200.933 27.556 201.192 27.1195 201.563 26.7852L203.057 25.4277C203.516 25.0157 204.1 24.7892 204.704 24.7892C204.724 24.7892 204.745 24.7892 204.765 24.7906C204.795 24.7892 204.825 24.7892 204.855 24.7892C205.539 24.7892 206.197 25.0826 206.662 25.5928L219.775 39.8948L235.656 6.19384L235.684 6.14063C235.802 5.92371 235.946 5.72861 236.116 5.55807L236.193 5.48577L237.7 4.11737C238.155 3.70536 238.745 3.47888 239.36 3.47888C239.39 3.47888 239.42 3.47888 239.45 3.48025C239.465 3.48025 239.48 3.48025 239.495 3.48025C239.749 3.48025 240 3.51981 240.241 3.59894C241.45 3.99459 242.157 5.22382 241.887 6.45988L228.387 70.3637L227.601 71.1536L226.111 72.507C225.658 72.919 225.074 73.1455 224.469 73.1455C224.391 73.1455 224.313 73.1414 224.237 73.1345C223.564 73.0759 222.935 72.7321 222.518 72.1932L211.805 58.5311L194.417 87.1377L193.989 87.5306L192.5 88.884C192.041 89.296 191.454 89.5211 190.847 89.5211Z" fill="black"/>
<path d="M239.36 3.95501C239.388 3.95501 239.417 3.95501 239.446 3.95637C239.462 3.95637 239.479 3.95637 239.495 3.95637C239.698 3.95637 239.9 3.98775 240.094 4.05051C241.071 4.36976 241.638 5.35887 241.42 6.35481L227.949 70.1235L227.271 70.8043L225.791 72.1495C225.425 72.481 224.954 72.6638 224.468 72.6638C224.407 72.6638 224.344 72.6611 224.283 72.6543C223.736 72.6065 223.232 72.331 222.895 71.8957L211.756 57.6879L194.043 86.8307L193.665 87.1773L192.178 88.5293C191.806 88.8635 191.335 89.0436 190.847 89.0436C190.5 89.0436 190.16 88.9536 189.863 88.7817C189.113 88.3519 188.732 87.5006 188.913 86.6534L201.277 28.1781L201.281 28.1563C201.375 27.7607 201.584 27.4087 201.883 27.1399L203.378 25.7811C203.752 25.4454 204.22 25.2667 204.703 25.2667C204.724 25.2667 204.745 25.2667 204.767 25.2681C204.795 25.2667 204.825 25.2667 204.854 25.2667C205.4 25.2667 205.926 25.4959 206.307 25.9134L219.902 40.7406L236.083 6.40802L236.106 6.36436C236.2 6.1911 236.317 6.03284 236.455 5.89368L236.519 5.83365L238.02 4.46935C238.398 4.12828 238.877 3.95501 239.36 3.95501ZM239.36 3C238.626 3 237.922 3.27013 237.379 3.76128L235.877 5.12694L235.871 5.13104L235.866 5.13513L235.802 5.19516L235.788 5.20744L235.776 5.21971C235.575 5.423 235.403 5.65356 235.266 5.90596L235.264 5.91005L235.263 5.91414L235.24 5.9578L235.229 5.97827L235.219 6.00146L219.646 39.0475L207.012 25.2695C206.46 24.6623 205.673 24.3131 204.855 24.3131C204.824 24.3131 204.793 24.3131 204.761 24.3144C204.742 24.3144 204.723 24.3144 204.704 24.3144C203.982 24.3144 203.285 24.5832 202.741 25.073L201.241 26.4359C200.801 26.8329 200.492 27.3527 200.353 27.938L200.348 27.9599L200.344 27.9817L200.341 27.9926L187.98 86.4569C187.713 87.7066 188.279 88.9754 189.39 89.6112C189.828 89.8649 190.334 90 190.848 90C191.573 90 192.272 89.7312 192.818 89.2414L194.309 87.8853L194.69 87.5361L194.79 87.4447L194.86 87.3287L211.857 59.3647L222.145 72.4865C222.64 73.125 223.388 73.5356 224.197 73.6066C224.287 73.6148 224.38 73.6202 224.47 73.6202C225.194 73.6202 225.891 73.3501 226.433 72.8589L227.913 71.5137L227.931 71.4974L227.947 71.481L228.626 70.8002L228.825 70.5997L228.883 70.3227L242.353 6.55946C242.675 5.08328 241.832 3.61666 240.39 3.14462C240.099 3.05048 239.798 3.00273 239.494 3.00273C239.48 3.00273 239.466 3.00273 239.453 3.00273C239.424 3 239.393 3 239.36 3Z" fill="white"/>
<path d="M178.834 73.1413C178.096 73.1413 177.404 72.8139 176.936 72.2436L176.91 72.2109C176.456 71.6365 176.283 70.9011 176.43 70.189L185.379 28.1495C185.481 27.6556 185.732 27.2108 186.104 26.8657L187.658 25.4522C188.115 25.0552 188.687 24.841 189.276 24.841C189.301 24.841 189.324 24.841 189.349 24.8424C189.372 24.841 189.395 24.841 189.418 24.841H198.062C198.796 24.841 199.485 25.1657 199.953 25.7306L199.985 25.7701C200.438 26.3445 200.612 27.0771 200.468 27.7852L191.391 70.4359L190.594 71.1713L189.064 72.5615C188.619 72.9353 188.055 73.1413 187.48 73.1413H178.834V73.1413Z" fill="black"/>
<path d="M189.275 25.3186C189.3 25.3186 189.326 25.3186 189.35 25.3199C189.373 25.3186 189.395 25.3186 189.417 25.3186H198.061C198.652 25.3186 199.207 25.5792 199.585 26.0348L199.614 26.0703C199.975 26.5287 200.116 27.1181 200 27.6897L199.996 27.7088L190.956 70.1876L190.271 70.8207L188.757 72.1959C188.398 72.4974 187.945 72.6638 187.48 72.6638H178.834C178.239 72.6638 177.683 72.4005 177.305 71.9408L177.281 71.9121C176.919 71.4523 176.778 70.8602 176.897 70.2859L185.845 28.2491C185.928 27.8507 186.13 27.4933 186.429 27.215L186.448 27.1972L187.979 25.8056C188.345 25.4891 188.806 25.3186 189.275 25.3186ZM189.275 24.3636C188.571 24.3636 187.888 24.6201 187.353 25.0853L187.345 25.0921L187.336 25.0989L185.806 26.4905L185.802 26.4932L185.797 26.496L185.778 26.5137C185.334 26.9285 185.033 27.4605 184.909 28.0526L175.962 70.0853C175.785 70.9407 175.994 71.8207 176.531 72.5015L176.535 72.5056L176.539 72.5097L176.562 72.5383L176.565 72.5411L176.568 72.5438C177.127 73.2246 177.954 73.6148 178.835 73.6148H187.481C188.17 73.6148 188.841 73.3692 189.372 72.9231L189.386 72.9108L189.399 72.8985L190.914 71.5233L190.916 71.5206L190.919 71.5178L191.604 70.8848L191.826 70.6788L191.889 70.3827L200.929 27.9039L200.933 27.8848L200.934 27.8807L200.936 27.8766C201.108 27.0294 200.899 26.1549 200.364 25.4755L200.36 25.4714L200.356 25.4673L200.327 25.4318L200.323 25.4264L200.319 25.4223C199.76 24.7469 198.936 24.3608 198.06 24.3608H189.416C189.392 24.3608 189.369 24.3608 189.345 24.3622C189.323 24.3636 189.3 24.3636 189.275 24.3636Z" fill="white"/>
<path d="M164.126 73.1413C162.907 73.1413 161.861 72.23 161.693 71.0212L160.124 59.6334H157.928L155.799 69.8165C155.651 70.5491 155.165 71.1808 154.494 71.5164L153.346 72.5588C152.899 72.9339 152.334 73.1413 151.757 73.1413H143.113C142.377 73.1413 141.687 72.8166 141.218 72.2491L141.185 72.2081C140.737 71.6406 140.563 70.912 140.703 70.2053L140.709 70.1767L149.594 28.1522C149.695 27.6624 149.946 27.2163 150.32 26.8656L151.846 25.4782C152.296 25.0675 152.884 24.8397 153.503 24.8397C153.525 24.8397 153.547 24.8397 153.569 24.841C153.59 24.8397 153.612 24.8397 153.634 24.8397H178.009C178.762 24.8397 179.462 25.1766 179.931 25.766L183.54 30.3351C183.988 30.9122 184.162 31.6461 184.016 32.3529L179.927 51.7818C179.803 52.3235 179.504 52.8064 179.084 53.1489L177.573 54.4027C177.537 54.4368 177.498 54.4709 177.46 54.5036L175.227 56.3563L177.126 70.1931L175.983 71.1917L174.526 72.5151C174.069 72.9189 173.49 73.1386 172.891 73.1386H164.126V73.1413ZM166.246 45.4324L167.602 39.0407H162.296L160.933 45.4324H166.246Z" fill="black"/>
<path d="M178.01 25.3186C178.617 25.3186 179.181 25.5901 179.559 26.0648L183.166 30.6325C183.529 31.0991 183.666 31.6885 183.549 32.2588L179.46 51.685C179.362 52.1148 179.122 52.5036 178.782 52.7805L177.258 54.0452C177.223 54.078 177.187 54.1107 177.151 54.1421L174.718 56.1599L176.618 70.0048L175.669 70.8343L174.205 72.1645C173.841 72.4865 173.376 72.6638 172.891 72.6638H164.126C163.143 72.6638 162.301 71.9298 162.166 70.9557L160.54 59.1559H157.54L155.333 69.7183C155.204 70.3486 154.781 70.8589 154.225 71.1167L153.041 72.1932C152.68 72.496 152.226 72.6638 151.758 72.6638H143.114C142.522 72.6638 141.965 72.4019 141.587 71.9449L141.561 71.9121C141.2 71.4537 141.059 70.8643 141.175 70.2927L141.178 70.2763L150.064 28.2518C150.144 27.8589 150.348 27.4974 150.649 27.2149L150.668 27.1972L152.169 25.8329C152.534 25.4987 153.015 25.3186 153.504 25.3186C153.528 25.3186 153.551 25.3186 153.574 25.3199C153.595 25.3186 153.615 25.3186 153.635 25.3186H178.01V25.3186ZM160.344 45.9099H166.632L168.191 38.5632H161.91L160.344 45.9099ZM178.01 24.3636H153.635C153.612 24.3636 153.59 24.3636 153.567 24.3649C153.547 24.3649 153.525 24.3649 153.504 24.3649C152.766 24.3649 152.064 24.6364 151.524 25.1289L150.026 26.4919L150.021 26.496L150.017 26.5L149.998 26.5178C149.548 26.9394 149.248 27.4728 149.128 28.0622L140.244 70.0812L140.239 70.1017L140.237 70.1222V70.1235C140.072 70.9653 140.28 71.833 140.812 72.5069L140.84 72.5411L140.847 72.5492L140.853 72.5574C141.413 73.2341 142.238 73.6229 143.115 73.6229H151.76C152.45 73.6229 153.124 73.376 153.657 72.9285L153.671 72.9162L153.685 72.904L154.772 71.9162C155.541 71.5069 156.097 70.7688 156.27 69.9134L158.318 60.115H159.708L161.221 71.0908C161.422 72.5356 162.67 73.6229 164.126 73.6229H172.891C173.607 73.6229 174.298 73.361 174.838 72.8835L174.843 72.8794L174.849 72.8753L176.306 71.5519L177.249 70.7279L177.636 70.3896L177.567 69.8793L175.738 56.561L177.762 54.8816L177.767 54.8775L177.771 54.8734C177.811 54.8393 177.85 54.8038 177.889 54.7683L179.391 53.5214C179.891 53.1121 180.247 52.5363 180.393 51.9019L180.395 51.8938L180.396 51.8856L184.485 32.4593C184.66 31.6107 184.454 30.7348 183.922 30.05L183.919 30.0472L183.916 30.0445L180.309 25.4741C179.747 24.7674 178.909 24.3636 178.01 24.3636ZM162.684 39.5182H167.012L165.858 44.9549H161.524L162.684 39.5182Z" fill="white"/>
<path d="M107.934 73.1413C107.196 73.1413 106.504 72.8139 106.036 72.2436L106.017 72.2218C105.551 71.6338 105.377 70.8889 105.533 70.1685L114.424 28.1085L114.435 28.0662C114.551 27.5969 114.805 27.1713 115.166 26.8438L116.667 25.4795C117.115 25.0689 117.705 24.841 118.327 24.841C118.348 24.841 118.367 24.841 118.387 24.8424C118.411 24.841 118.432 24.841 118.456 24.841H142.83C143.583 24.841 144.285 25.1794 144.751 25.7674L148.367 30.346C148.814 30.9204 148.983 31.6543 148.834 32.3624L141.872 65.2529C141.762 65.7987 141.46 66.2994 141.024 66.6554L139.553 67.871C139.497 67.927 139.437 67.9802 139.373 68.032L133.872 72.5792C133.433 72.9421 132.878 73.1413 132.307 73.1413H107.934ZM128.184 58.8203L132.361 39.1607H127.116L122.931 58.8203H128.184Z" fill="black"/>
<path d="M142.83 25.3186C143.436 25.3186 144.001 25.5901 144.377 26.0648L147.993 30.6421C148.35 31.1018 148.488 31.6926 148.368 32.2642L141.406 65.1547C141.316 65.6009 141.074 65.9992 140.722 66.2871L139.231 67.5191C139.182 67.5695 139.13 67.6159 139.076 67.6596L133.568 72.2109C133.215 72.5028 132.767 72.6638 132.307 72.6638H107.934C107.339 72.6638 106.783 72.4005 106.405 71.9408L106.384 71.9162C106.013 71.4482 105.874 70.8493 106 70.2695L114.889 28.2191L114.898 28.1877C114.993 27.803 115.198 27.4605 115.488 27.1972L116.989 25.8329C117.355 25.4973 117.835 25.3186 118.327 25.3186C118.349 25.3186 118.371 25.3186 118.393 25.3199C118.413 25.3186 118.435 25.3186 118.456 25.3186H142.83V25.3186ZM122.341 59.2978H128.571L132.95 38.6832H126.73L122.341 59.2978ZM142.83 24.3636H118.456C118.432 24.3636 118.409 24.3636 118.385 24.3649C118.366 24.3649 118.346 24.3649 118.327 24.3649C117.585 24.3649 116.881 24.6364 116.342 25.1303L114.844 26.4919C114.415 26.8807 114.113 27.3868 113.971 27.953L113.964 27.9789L113.959 28.0008L113.955 28.0226L105.066 70.073C104.881 70.9284 105.088 71.8193 105.637 72.511L105.644 72.5206L105.652 72.5301L105.669 72.552C106.229 73.2314 107.054 73.6202 107.934 73.6202H132.307C132.988 73.6202 133.653 73.3815 134.176 72.949L139.679 68.4018C139.748 68.3458 139.814 68.2885 139.875 68.2271L141.331 67.0238C141.848 66.6009 142.208 66.0047 142.342 65.3485L149.302 32.462C149.48 31.6148 149.278 30.7389 148.747 30.0554L148.744 30.0527L148.742 30.05L145.126 25.4727C144.568 24.7674 143.731 24.3636 142.83 24.3636ZM127.504 39.6382H131.771L127.797 58.3428H123.521L127.504 39.6382Z" fill="white"/>
<path d="M308.02 26.1262C307.642 25.6706 307.086 25.41 306.497 25.41H298.212C298.187 25.41 298.162 25.41 298.138 25.4113C297.632 25.3936 297.124 25.5791 296.745 25.9243L295.248 27.2845C294.952 27.5506 294.746 27.8971 294.652 28.2873L291.753 41.9562L287.757 26.8807L287.752 26.8602C287.514 26.0062 286.73 25.41 285.844 25.41H276.36C276.338 25.41 276.315 25.41 276.293 25.4113C275.777 25.3922 275.276 25.5751 274.892 25.9243L273.782 26.9325C273.74 26.7565 273.673 26.5833 273.583 26.4209C273.234 25.7961 272.574 25.41 271.857 25.41H262.251C262.23 25.41 262.208 25.41 262.186 25.4113C261.67 25.395 261.168 25.5751 260.785 25.9243L259.288 27.2845C259.156 27.4046 259.04 27.541 258.943 27.6952L249.954 42.3996H248.904L252 27.7989C252.124 27.2136 251.973 26.5928 251.588 26.1262C251.21 25.6706 250.655 25.41 250.064 25.41H241.42C241.394 25.41 241.368 25.41 241.344 25.4113C240.84 25.3977 240.334 25.5791 239.953 25.9243L238.457 27.2845C238.163 27.5492 237.957 27.8916 237.862 28.2791L237.854 28.3105L228.965 70.3568C228.838 70.938 228.976 71.5383 229.349 72.0076L229.372 72.0363C229.75 72.4933 230.305 72.7552 230.897 72.7552H239.543C240.028 72.7552 240.496 72.5765 240.859 72.2532L242.309 70.9366L243.003 70.3527L246.095 55.7656H247.451L250.385 71.1399C250.559 72.0758 251.378 72.7552 252.33 72.7552H261.335C261.803 72.7552 262.257 72.5874 262.617 72.2846L263.799 71.2109C263.831 71.1959 263.864 71.1795 263.897 71.1631C263.957 71.4673 264.089 71.7579 264.287 72.0076L264.31 72.0363C264.688 72.4933 265.245 72.7552 265.837 72.7552H274.122C274.608 72.7552 275.076 72.5765 275.439 72.2532L276.903 70.9216L277.589 70.3186L280.608 56.0835L284.635 71.2777C284.862 72.1481 285.646 72.7552 286.548 72.7552H295.974C296.458 72.7552 296.924 72.5779 297.288 72.2559L298.725 70.9503L299.427 70.3868L308.433 27.7975L308.436 27.7811C308.556 27.1917 308.403 26.5887 308.02 26.1262ZM260.921 49.0137L272.362 30.3487L264.558 67.2558L260.921 49.0137Z" fill="#000100"/>
<path d="M241.375 6.4462L227.904 70.2149L227.226 70.8957L225.746 72.2409C225.333 72.6147 224.786 72.7989 224.238 72.7457C223.691 72.6979 223.187 72.4223 222.85 71.9871L211.711 57.7793L193.998 86.9221L193.62 87.2686L192.133 88.6207C191.761 88.9549 191.29 89.135 190.802 89.135C190.455 89.135 190.115 89.045 189.818 88.8731C189.068 88.4433 188.687 87.592 188.869 86.7448L201.232 28.2695L201.236 28.2477C201.33 27.8521 201.539 27.5001 201.838 27.2313L203.333 25.8725C203.723 25.5218 204.216 25.3431 204.722 25.3595C205.299 25.3336 205.861 25.5641 206.262 26.0048L219.857 40.832L236.038 6.49941L236.061 6.45575C236.155 6.28248 236.272 6.12422 236.41 5.98507L236.474 5.92504L237.975 4.56074C238.375 4.1992 238.889 4.02593 239.401 4.04776C239.62 4.0423 239.839 4.07368 240.049 4.1419C241.026 4.46114 241.593 5.45026 241.375 6.4462Z" fill="#000100"/>
<path d="M199.955 27.7811L199.951 27.8002L190.911 70.279L190.226 70.9121L188.712 72.2873C188.353 72.5888 187.9 72.7552 187.435 72.7552H178.789C178.194 72.7552 177.638 72.4919 177.26 72.0322L177.236 72.0035C176.874 71.5437 176.733 70.9516 176.852 70.3773L185.8 28.3405C185.883 27.9421 186.085 27.5847 186.384 27.3063L186.403 27.2886L187.934 25.897C188.319 25.5628 188.81 25.3922 189.305 25.4113C189.328 25.41 189.35 25.41 189.372 25.41H198.016C198.607 25.41 199.162 25.6705 199.54 26.1262L199.569 26.1617C199.93 26.6201 200.071 27.2095 199.955 27.7811Z" fill="#000100"/>
<path d="M183.121 30.7239L179.513 26.1562C179.136 25.6815 178.572 25.41 177.965 25.41H153.59C153.57 25.41 153.549 25.41 153.529 25.4113C153.015 25.3936 152.507 25.5737 152.124 25.9243L150.623 27.2886L150.604 27.3064C150.302 27.5888 150.099 27.9503 150.019 28.3432L141.133 70.3677L141.13 70.3841C141.014 70.9557 141.155 71.5451 141.516 72.0035L141.542 72.0363C141.92 72.4933 142.477 72.7552 143.069 72.7552H151.713C152.181 72.7552 152.635 72.5874 152.996 72.2846L154.18 71.2081C154.736 70.9503 155.159 70.44 155.288 69.8097L157.495 59.2473H160.495L162.121 71.0471C162.256 72.0213 163.098 72.7552 164.08 72.7552H172.846C173.33 72.7552 173.796 72.5779 174.16 72.2559L175.624 70.9257L176.573 70.0962L174.673 56.2513L177.105 54.2335C177.142 54.2021 177.178 54.1694 177.213 54.1367L178.737 52.8719C179.077 52.595 179.317 52.2062 179.415 51.7764L183.504 32.3502C183.621 31.7799 183.484 31.1905 183.121 30.7239ZM168.146 38.6546L166.587 46.0013H160.299L161.865 38.6546H168.146Z" fill="#000100"/>
<path d="M147.948 30.7335L144.332 26.1562C143.956 25.6815 143.391 25.41 142.785 25.41H118.411C118.39 25.41 118.368 25.41 118.348 25.4113C117.832 25.395 117.326 25.5737 116.944 25.9243L115.443 27.2886C115.153 27.5519 114.948 27.8944 114.853 28.2791L114.844 28.3105L105.955 70.3609C105.829 70.9407 105.968 71.5397 106.339 72.0076L106.36 72.0322C106.738 72.4919 107.294 72.7552 107.889 72.7552H132.262C132.722 72.7552 133.17 72.5943 133.523 72.3023L139.031 67.751C139.085 67.7073 139.137 67.661 139.186 67.6105L140.677 66.3785C141.029 66.0906 141.271 65.6923 141.361 65.2461L148.323 32.3556C148.443 31.784 148.305 31.1932 147.948 30.7335ZM122.296 59.3892L126.685 38.7746H132.905L128.526 59.3892H122.296V59.3892Z" fill="#000100"/>
<path d="M132.262 70.7757H107.889L116.773 28.7525L118.274 27.3882L144.75 33.3147L137.786 66.2134L132.262 70.7757ZM123.738 36.7964L118.216 62.7317H128.902L130.043 61.7713L135.145 37.7569L134.365 36.7964H123.738V36.7964ZM151.715 70.7757H143.069L151.955 28.7511L153.455 27.3868L179.931 33.3134L175.848 52.7055L170.925 56.7875L174.347 69.4114L172.846 70.7757H164.081L162.22 57.2677H154.535L153.214 69.4114L151.715 70.7757ZM158.918 36.6764L156.217 49.3439H166.903L168.104 48.3834L170.385 37.6368L169.605 36.6764H158.918ZM187.435 70.7757H178.789L187.735 28.7511L189.235 27.3868L196.38 28.7511L188.935 69.4114L187.435 70.7757ZM239.543 70.7757H230.897L239.783 28.7511L241.284 27.3868L248.428 28.7511L244.827 45.7408H250.229L260.616 28.7511L262.116 27.3868L270.222 28.7511L257.194 50.0028L262.837 69.41L261.336 70.7743H252.33L249.089 53.7847H243.146L241.045 69.41L239.543 70.7757ZM274.122 70.7757H265.837L274.722 28.7511L276.223 27.3868L284.208 28.7511L290.812 53.666H291.292L296.574 28.7511L298.075 27.3868L304.86 28.7511L297.475 69.4114L295.974 70.7757H286.548L279.945 45.8608H279.405L275.623 69.4114L274.122 70.7757ZM192.304 85.7925L211.047 53.726L224.414 70.7757L225.915 69.4114L239.305 6.02328L237.805 7.38758L219.41 46.4188L204.663 27.3364L203.162 28.7007L190.802 87.1568L192.304 85.7925Z" fill="#046F3B"/>
<path d="M192.304 85.7925L211.047 53.726L224.414 70.7757L225.915 69.4114L239.305 6.02328L237.805 7.38758L219.41 46.4188L204.663 27.3364L203.162 28.7007L190.802 87.1568L192.304 85.7925Z" fill="#9B7F19"/>
<path d="M133.9 69.4114H109.526L118.411 27.3882H142.785L146.387 31.9504L139.424 64.8491L133.9 69.4114ZM125.375 35.4321L119.853 61.3674H130.539L131.68 60.407L136.782 36.3926L136.002 35.4321H125.375ZM153.352 69.4114H144.706L153.592 27.3868H177.966L181.568 31.9491L177.485 51.3412L172.562 55.4232L174.483 69.4114H165.718L163.857 55.9034H156.172L153.352 69.4114ZM160.555 35.3121L157.854 47.9796H168.54L169.741 47.0191L172.022 36.2725L171.242 35.3121H160.555ZM189.072 69.4114H180.426L189.372 27.3868H198.017L189.072 69.4114ZM241.18 69.4114H232.534L241.42 27.3868H250.065L246.464 44.3765H251.866L262.253 27.3868H271.859L258.831 48.6385L262.973 69.41H253.967L250.726 52.4204H244.783L241.18 69.4114ZM275.759 69.4114H267.474L276.36 27.3868H285.846L292.449 52.3017H292.929L298.212 27.3868H306.497L297.611 69.4114H288.185L281.582 44.4965H281.042L275.759 69.4114ZM212.684 52.3617L226.051 69.4114L239.442 6.02328L221.047 45.0545L204.799 27.3364L192.439 85.7925L212.684 52.3617Z" fill="#00BF63" stroke="black" stroke-width="0.27286" stroke-miterlimit="10" stroke-linecap="round" stroke-linejoin="round"/>
<path d="M212.684 52.3617L226.051 69.4114L239.442 6.02328L221.047 45.0545L204.799 27.3364L192.439 85.7925L212.684 52.3617Z" fill="#FFD12F" stroke="#231F20" stroke-width="0.27286" stroke-miterlimit="10" stroke-linecap="round" stroke-linejoin="round"/>
<circle cx="46.5" cy="46.5" r="46.5" fill="#000100"/>
<circle cx="46.362" cy="46.362" r="40.859" transform="rotate(0.047194 46.362 46.362)" stroke="#00BF63" stroke-width="1.52459"/>
<path d="M42.133 50.9783L46.1161 56.0587L50.1062 37.1707L44.625 48.801L39.7837 43.5214L36.1005 60.9398L42.133 50.9783Z" fill="#FFD12F"/>
<path d="M30.9793 65.9918C30.993 65.9963 31.0085 66.0014 31.0247 66.0062C32.1035 66.338 33.2199 66.5819 34.3408 66.7751L34.3408 66.7751C36.6444 67.1713 39.0013 67.348 41.3739 67.3559L41.3748 67.3559C43.816 67.348 46.2762 67.1603 48.7251 66.7398C49.8677 66.5448 51.0145 66.2969 52.1411 65.9611L52.273 65.9218L52.2522 65.7927C52.2409 65.7222 52.2315 65.6574 52.2221 65.5917C52.2139 65.5345 52.2055 65.4766 52.1956 65.4135L52.1758 65.2864L52.0438 65.3108C50.9279 65.5174 49.806 65.6634 48.6829 65.7854C46.2825 66.0443 43.8724 66.2208 41.4883 66.2137L41.4875 66.2137C39.0305 66.2208 36.5851 66.0341 34.1677 65.7603C33.1657 65.6462 32.1691 65.5104 31.1871 65.3241L31.0625 65.3004L31.0161 65.4244C30.968 65.5527 30.9163 65.677 30.8627 65.8011L30.8032 65.9387L30.9391 65.979C30.9515 65.9827 30.964 65.9868 30.9786 65.9916L30.9793 65.9918Z" fill="#00BF63" stroke="#00BF63" stroke-width="0.280475"/>
<path d="M30.3275 67.963L30.3275 67.9629C29.9884 67.6936 29.9162 67.3479 29.9692 66.9994C30.0197 66.6676 30.1844 66.3282 30.3206 66.0473L30.326 66.0362L30.3261 66.0361C30.4945 65.6897 30.6504 65.3637 30.6799 65.0673L33.7658 34.0404L33.7659 34.04C33.768 34.0188 33.8351 33.3572 33.6698 32.7422L33.6697 32.7421C33.4985 32.103 33.6138 31.429 34.0031 30.9436L34.1101 31.0236M30.3275 67.963L52.6664 66.0354C52.5676 65.6885 52.4758 65.3628 52.5053 65.0665H52.5054L52.5057 65.0613L52.507 65.0402L52.5071 65.0381C52.5172 64.8231 52.5359 64.5223 52.5602 64.2451C52.5849 63.9629 52.6141 63.7197 52.6427 63.611L52.6427 63.6109C52.7255 63.2949 52.8022 63.0579 52.9212 62.839C53.0393 62.6219 53.2031 62.415 53.4686 62.1673C54.0072 61.6648 54.9382 61.0164 56.6898 59.7976C57.1565 59.4733 57.6776 59.1106 58.2607 58.7016C63.5095 55.0256 64.0765 49.1133 63.9964 44.4337C63.9595 42.2924 63.5022 40.7042 62.5798 39.6015C61.5897 38.4178 60.0609 37.7659 57.9299 37.5917C56.8101 37.5001 56.144 37.3003 55.7648 37.1023C55.5753 37.0033 55.4612 36.9068 55.3971 36.8282C55.3305 36.7464 55.3263 36.6954 55.3273 36.6853L55.3277 36.6814L55.3281 36.6775L55.3285 36.6735L55.3289 36.6695L55.3293 36.6655L55.3297 36.6615L55.3301 36.6574L55.3305 36.6533L55.3309 36.6492L55.3313 36.645L55.3317 36.6409L55.3321 36.6366L55.3326 36.6324L55.333 36.6281L55.3334 36.6238L55.3338 36.6195L55.3343 36.6152L55.3347 36.6108L55.3351 36.6064L55.3356 36.6019L55.336 36.5975L55.3365 36.593L55.3369 36.5884L55.3374 36.5839L55.3378 36.5793L55.3383 36.5747L55.3388 36.5701L55.3392 36.5655L55.3397 36.5608L55.3401 36.5561L55.3406 36.5513L55.3411 36.5466L55.3416 36.5418L55.342 36.537L55.3425 36.5322L55.343 36.5273L55.3435 36.5224L55.344 36.5175L55.3445 36.5126L55.345 36.5076L55.3455 36.5026L55.346 36.4976L55.3465 36.4926L55.347 36.4875L55.3475 36.4825L55.348 36.4774L55.3485 36.4722L55.349 36.4671L55.3495 36.4619L55.35 36.4567L55.3505 36.4515L55.3511 36.4463L55.3516 36.441L55.3521 36.4357L55.3526 36.4304L55.3532 36.4251L55.3537 36.4197L55.3542 36.4143L55.3548 36.4089L55.3553 36.4035L55.3559 36.3981L55.3564 36.3926L55.3569 36.3871L55.3575 36.3816L55.358 36.3761L55.3586 36.3706L55.3592 36.365L55.3597 36.3594L55.3603 36.3538L55.3608 36.3482L55.3614 36.3425L55.3619 36.3369L55.3625 36.3312L55.3631 36.3255L55.3637 36.3198L55.3642 36.314L55.3648 36.3082L55.3654 36.3025L55.3659 36.2967L55.3665 36.2908L55.3671 36.285L55.3677 36.2791L55.3683 36.2733L55.3689 36.2674L55.3694 36.2615L55.37 36.2555L55.3706 36.2496L55.3712 36.2436L55.3718 36.2376L55.3724 36.2316L55.373 36.2256L55.3736 36.2196L55.3742 36.2135L55.3748 36.2075L55.3754 36.2014L55.376 36.1953L55.3766 36.1892L55.3772 36.1831L55.3779 36.1769L55.3785 36.1707L55.3791 36.1646L55.3797 36.1584L55.3803 36.1522L55.3809 36.1459L55.3816 36.1397L55.3822 36.1334L55.3828 36.1272L55.3834 36.1209L55.3841 36.1146L55.3847 36.1083L55.3853 36.102L55.3859 36.0956L55.3866 36.0893L55.3872 36.0829L55.3878 36.0765L55.3885 36.0701L55.3891 36.0637L55.3898 36.0573L55.3904 36.0509L55.391 36.0444L55.3917 36.038L55.3923 36.0315L55.393 36.025L55.3936 36.0185L55.3943 36.012L55.3949 36.0055L55.3956 35.999L55.3962 35.9924L55.3969 35.9859L55.3975 35.9793L55.3982 35.9727L55.3988 35.9661L55.3995 35.9595L55.4001 35.9529L55.4008 35.9463L55.4015 35.9397L55.4021 35.933L55.4028 35.9264L55.4034 35.9197L55.4041 35.9131L55.4048 35.9064L55.4054 35.8997L55.4061 35.893L55.4068 35.8863L55.4074 35.8796L55.4081 35.8728L55.4088 35.8661L55.4094 35.8594L55.4101 35.8526L55.4108 35.8459L55.4115 35.8391L55.4121 35.8323L55.4128 35.8255L55.4135 35.8187L55.4142 35.8119L55.4148 35.8051L55.4155 35.7983L55.4162 35.7915L55.4169 35.7847L55.4175 35.7778L55.4182 35.771L55.4189 35.7642L55.4196 35.7573L55.4203 35.7504L55.421 35.7436L55.4216 35.7367L55.4223 35.7298L55.423 35.7229L55.4237 35.7161L55.4244 35.7092L55.4251 35.7023L55.4258 35.6954L55.4264 35.6885L55.4271 35.6815L55.4278 35.6746L55.4285 35.6677L55.4292 35.6608L55.4299 35.6538L55.4306 35.6469L55.4313 35.64L55.432 35.633L55.4326 35.6261L55.4333 35.6191L55.434 35.6122L55.4347 35.6052L55.4354 35.5983L55.4361 35.5913L55.4368 35.5843L55.4375 35.5774L55.4382 35.5704L55.4389 35.5634L55.4396 35.5565L55.4403 35.5495L55.441 35.5425L55.4417 35.5355L55.4423 35.5285L55.443 35.5216L55.4437 35.5146L55.4444 35.5076L55.4451 35.5006L55.4458 35.4936L55.4465 35.4866L55.4472 35.4797L55.4479 35.4727L55.4486 35.4657L55.4493 35.4587L55.45 35.4517L55.4507 35.4447L55.4514 35.4377L55.4521 35.4307L55.4528 35.4238L55.4535 35.4168L55.4542 35.4098L55.4549 35.4028L55.4555 35.3958L55.4562 35.3889L55.4569 35.3819L55.4576 35.3749L55.4583 35.3679L55.459 35.361L55.4597 35.354L55.4604 35.347L55.4611 35.3401L55.4618 35.3331L55.4625 35.3261L55.4632 35.3192L55.4639 35.3122L55.4646 35.3053L55.4652 35.2983L55.4659 35.2914L55.4666 35.2845L55.4673 35.2775L55.468 35.2706L55.4687 35.2637L55.4694 35.2567L55.4701 35.2498L55.4708 35.2429L55.4714 35.236L55.4721 35.2291L55.4728 35.2222L55.4735 35.2153L55.4742 35.2084L55.4749 35.2015L55.4756 35.1947L55.4762 35.1878L55.4769 35.1809L55.4776 35.1741L55.4783 35.1672L55.479 35.1604L55.4796 35.1535L55.4803 35.1467L55.481 35.1399L55.4817 35.133L55.4824 35.1262L55.483 35.1194L55.4837 35.1126L55.4844 35.1058L55.4851 35.099L55.4857 35.0923L55.4864 35.0855L55.4871 35.0787L55.4878 35.072L55.4884 35.0653L55.4891 35.0585L55.4898 35.0518L55.4904 35.0451L55.4911 35.0384L55.4918 35.0317L55.4924 35.025L55.4931 35.0183L55.4938 35.0116L55.4944 35.005L55.4951 34.9983L55.4957 34.9917L55.4964 34.9851L55.4971 34.9785L55.4977 34.9718L55.4984 34.9652L55.499 34.9587L55.4997 34.9521L55.5003 34.9455L55.501 34.939L55.5016 34.9324L55.5023 34.9259L55.5029 34.9194L55.5036 34.9129L55.5042 34.9064L55.5049 34.8999L55.5055 34.8934L55.5062 34.887L55.5068 34.8805L55.5074 34.8741L55.5081 34.8677L55.5087 34.8613L55.5093 34.8549L55.51 34.8485L55.5106 34.8421L55.5112 34.8358L55.5119 34.8294L55.5125 34.8231L55.5131 34.8168L55.5138 34.8105L55.5144 34.8042L55.515 34.798L55.5156 34.7917L55.5163 34.7855L55.5169 34.7792L55.5175 34.773L55.5181 34.7668L55.5187 34.7607L55.5193 34.7545L55.5199 34.7484L55.5206 34.7422L55.5212 34.7361L55.5218 34.73L55.5224 34.7239L55.523 34.7179L55.5236 34.7118L55.5242 34.7058L55.5248 34.6998L55.5254 34.6938L55.526 34.6878L55.5266 34.6818L55.5272 34.6759L55.5277 34.67L55.5283 34.664L55.5289 34.6582L55.5295 34.6523L55.5301 34.6464L55.5307 34.6406L55.5312 34.6348L55.5318 34.629L55.5324 34.6232L55.533 34.6174L55.5335 34.6117L55.5341 34.606L55.5347 34.6003L55.5352 34.5946L55.5358 34.5889L55.5364 34.5833L55.5369 34.5776L55.5375 34.572L55.538 34.5664L55.5386 34.5609L55.5391 34.5553L55.5397 34.5498L55.5402 34.5443L55.5408 34.5388L55.5413 34.5334L55.5419 34.5279L55.5424 34.5225L55.5429 34.5171L55.5435 34.5117L55.544 34.5064L55.5445 34.5011L55.5451 34.4958L55.5456 34.4905L55.5461 34.4852L55.5466 34.48L55.5472 34.4747L55.5477 34.4696L55.5482 34.4644L55.5487 34.4592L55.5492 34.4541L55.5497 34.449L55.5502 34.4439L55.5507 34.4389L55.5512 34.4338L55.5517 34.4288L55.5522 34.4239L55.5527 34.4189L55.5532 34.414L55.5537 34.4091L55.5542 34.4042L55.5547 34.3993L55.5551 34.3945L55.5556 34.3897L55.5561 34.3849L55.5566 34.3802L55.557 34.3754L55.5575 34.3707L55.558 34.366L55.5584 34.3614L55.5589 34.3568L55.5593 34.3522L55.5598 34.3476L55.5603 34.3431L55.5607 34.3385L55.5612 34.334L55.5616 34.3296L55.562 34.3252L55.5625 34.3207L55.5629 34.3164L55.5633 34.312L55.5638 34.3077L55.5642 34.3034L55.5646 34.2991L55.565 34.2949L55.5655 34.2907L55.5659 34.2865L55.5663 34.2823L55.5667 34.2782L55.5671 34.2741L55.5675 34.27L55.5679 34.266L55.5683 34.262L55.5687 34.258L55.5691 34.2541L55.5695 34.2502L55.5699 34.2463L55.5703 34.2424L55.5706 34.2386L55.571 34.2348L55.5714 34.231L55.5718 34.2273L55.5721 34.2236L55.5725 34.2199L55.5729 34.2163L55.5732 34.2127L55.5736 34.2091L55.5739 34.2056L55.5743 34.2021L55.5746 34.1986L55.575 34.1951L55.5753 34.1917L55.5756 34.1883L55.576 34.185L55.5763 34.1817L55.5766 34.1784L55.577 34.1751L55.5773 34.1719L55.5776 34.1687L55.5779 34.1656L55.5782 34.1625L55.5785 34.1594L55.5788 34.1563L55.5791 34.1533L55.5794 34.1503L55.5797 34.1474L55.58 34.1445L55.5803 34.1416L55.5806 34.1388L55.5809 34.136L55.5811 34.1332L55.5814 34.1305L55.5817 34.1278L55.5819 34.1251L55.5822 34.1225L55.5825 34.1199L55.5827 34.1173L55.583 34.1148L55.5832 34.1123L55.5834 34.1099L55.5837 34.1075L55.5839 34.1051L55.5842 34.1028L55.5844 34.1005L55.5846 34.0982L55.5848 34.096L55.585 34.0938L55.5853 34.0916L55.5855 34.0895L55.5857 34.0875L55.5859 34.0854L55.5861 34.0834L55.5863 34.0815L55.5865 34.0796L55.5866 34.0777L55.5868 34.0758L55.587 34.074L55.5872 34.0723L55.5874 34.0706L55.5875 34.0689L55.5877 34.0672L55.5878 34.0656L55.588 34.0641L55.5882 34.0626L55.5883 34.0611L55.5884 34.0596L55.5886 34.0582L55.5887 34.0569L55.5889 34.0556L55.589 34.0543L55.5891 34.053L55.5892 34.0518L55.5893 34.0507L55.5894 34.0496L55.5896 34.0485L55.5897 34.0475L55.5898 34.0465L55.5898 34.0455L55.5899 34.0446L55.59 34.0438L55.5901 34.043L55.5902 34.0422L55.5903 34.0415L55.5903 34.0408L55.5904 34.0401L55.5904 34.0395L55.5905 34.039L55.5906 34.0385L55.5906 34.038L55.5906 34.0376L55.5907 34.0372L55.5907 34.0368L55.5907 34.0366L55.5908 34.0363L55.5908 34.0361L55.5908 34.0359L55.5908 34.0358L55.5908 34.0357L55.5908 34.0355C55.5922 34.0212 55.6564 33.3583 55.9447 32.7422L55.9447 32.7421C56.2431 32.103 56.2619 31.429 55.9691 30.9436C55.7528 30.5851 55.2798 30.1807 54.278 30.1807H35.846C34.8443 30.1807 34.2908 30.5842 34.003 30.9437L34.1101 31.0236M30.3275 67.963C30.5715 68.1566 30.968 68.3503 31.5175 68.5327C32.0693 68.7158 32.7833 68.8903 33.6691 69.0416C35.4406 69.3441 37.9058 69.5551 41.1462 69.5551C44.3866 69.5551 46.8937 69.3439 48.7255 69.0412C49.6413 68.8898 50.3901 68.7152 50.9783 68.532C51.5641 68.3495 51.9992 68.1558 52.2816 67.9622L52.2094 67.85L52.2816 67.9622C52.6744 67.6928 52.8153 67.3469 52.8316 66.9983C52.8472 66.666 52.7497 66.326 52.6692 66.0452L52.6664 66.0356L30.3275 67.963ZM34.1101 31.0236C34.3671 30.7025 34.875 30.3203 35.8321 30.3203H54.2641C55.2212 30.3203 55.653 30.7033 55.8462 31.0236C56.1117 31.4637 56.1008 32.0879 55.8178 32.6941M34.1101 31.0236C33.757 31.4637 33.6438 32.0879 33.8062 32.6941C33.978 33.3329 33.9087 34.0147 33.9061 34.0399L33.9061 34.0404L30.8201 65.0673L55.8178 32.6941M55.8178 32.6941C55.5185 33.3338 55.4524 34.0166 55.4506 34.0354L55.4506 34.0357L55.1871 36.6853C55.1636 36.921 55.6453 37.546 57.9047 37.7308L55.8178 32.6941ZM34.737 32.3672L34.737 32.3673C34.9517 33.1671 34.8687 33.98 34.8622 34.0432C34.8621 34.0444 34.862 34.0453 34.8619 34.0459L31.7766 65.0665C31.7266 65.5696 31.503 66.0306 31.3168 66.4146L31.3109 66.4268L31.3109 66.4268C31.1707 66.7157 31.0977 66.8859 31.0702 66.9918C31.0568 67.0434 31.058 67.0666 31.0595 67.0749L31.0596 67.0755L34.737 32.3672ZM34.737 32.3672C34.6476 32.0355 34.7017 31.7419 34.8397 31.5696M34.737 32.3672L34.6005 32.4153C34.5046 32.059 34.5539 31.7128 34.7328 31.4896C34.969 31.1951 35.4167 31.1332 35.7512 31.1332H54.1848C54.5185 31.1332 54.9547 31.1951 55.1324 31.4896M51.7359 66.3782L51.6038 66.4269L51.6017 66.4198C51.4923 66.0385 51.3608 65.5804 51.4071 65.0815M51.7359 66.3782L55.0805 32.4153C55.2474 32.0582 55.2661 31.712 55.1324 31.4896M51.7359 66.3782L51.6038 66.4269C51.6869 66.7162 51.7259 66.8863 51.7323 66.992C51.7354 67.0435 51.7296 67.0665 51.7264 67.0747L51.7262 67.0753C51.7252 67.078 51.7246 67.0796 51.7172 67.0847C51.6644 67.1205 49.6277 68.4631 41.2548 68.4631C32.8724 68.4631 31.1082 67.1175 31.0665 67.0846L51.7359 66.3782ZM51.4071 65.0815C51.4072 65.0804 51.4074 65.0793 51.4075 65.0782L51.5478 65.0775L51.407 65.0848C51.407 65.0837 51.4071 65.0827 51.4071 65.0815ZM51.4071 65.0815C51.4112 64.9943 51.4266 64.6919 51.4539 64.36C51.4812 64.0283 51.5216 63.652 51.5781 63.4364L51.5781 63.4363C51.6839 63.0325 51.7948 62.6995 51.9617 62.3898C52.1294 62.0785 52.35 61.7974 52.6682 61.4918C53.2947 60.8902 54.3175 60.1785 56.0962 58.9407L56.1185 58.9252L56.147 58.9054C56.6056 58.5862 57.1161 58.231 57.6861 57.8314L57.6861 57.8313C62.4354 54.5045 62.9717 49.0241 62.8947 44.5591C62.861 42.5923 62.4646 41.2019 61.6414 40.2655C60.8196 39.3306 59.5545 38.8278 57.7336 38.6789C54.5465 38.4181 54.1867 37.2143 54.2248 36.8309C54.2592 36.485 54.3268 35.7876 54.3858 35.1765L54.4627 34.3795L54.4864 34.1324L54.493 34.0646L54.4947 34.0469L54.4951 34.0424L54.4952 34.0413L54.4952 34.041L54.4952 34.0409L54.6355 34.0404L54.495 34.0442C54.4976 34.0081 54.5733 33.181 54.9536 32.3673L54.9536 32.3673C55.109 32.0348 55.1126 31.741 55.0094 31.5694M55.0094 31.5694C55.0095 31.5695 55.0095 31.5695 55.0096 31.5696L55.1324 31.4896M55.0094 31.5694L55.1324 31.4896M55.0094 31.5694C54.9419 31.4576 54.8204 31.382 54.6642 31.3348C54.5084 31.2878 54.3306 31.2728 54.171 31.2728H35.7374C35.5773 31.2728 35.3965 31.2878 35.2315 31.3348C35.066 31.382 34.9295 31.4576 34.8397 31.5696M34.8397 31.5696C34.8397 31.5695 34.8398 31.5695 34.8398 31.5695L34.7328 31.4896L34.8397 31.5696ZM58.9755 40.2997C58.4645 40.103 57.8142 39.9918 57.1894 39.9918C55.6376 39.9918 54.4078 40.671 53.8595 41.8882L53.8595 41.8883L57.1591 56.5205C58.717 55.3767 59.7902 53.9979 60.4738 52.1151C61.1552 50.2382 61.4475 47.8656 61.4577 44.7341C61.4627 43.2127 61.1387 42.2134 60.6583 41.5372C60.1778 40.8607 59.5501 40.5207 58.9755 40.2997ZM58.9755 40.2997L58.9135 40.4305L58.9755 40.2997C58.9755 40.2997 58.9755 40.2997 58.9755 40.2997ZM52.4129 56.855C52.3687 56.7277 52.3471 56.56 52.3377 56.3831C52.3283 56.204 52.331 56.006 52.3399 55.8133C52.3575 55.4291 52.3997 55.0579 52.4214 54.8833L53.5431 43.6055L52.4129 56.855ZM52.4129 56.855C52.4129 56.855 52.4129 56.855 52.4129 56.8551L52.5467 56.7984L52.4129 56.855ZM54.6402 43.6016L54.6403 43.6002C54.6637 43.3378 54.7006 43.037 54.7417 42.7799C54.7623 42.6513 54.7837 42.535 54.8046 42.4406C54.8264 42.3429 54.8454 42.279 54.859 42.2488C55.2855 41.3006 56.2701 41.0838 57.0808 41.0838C57.5749 41.0838 58.1039 41.174 58.4916 41.3233L58.4917 41.3233C58.986 41.5134 59.4479 41.7761 59.7888 42.29C60.1309 42.8056 60.3605 43.5886 60.3566 44.839C60.3469 47.7996 60.0807 50.0058 59.4758 51.7226C58.873 53.4332 57.9327 54.6616 56.5622 55.6679L56.5621 55.668C56.3723 55.8076 55.9507 56.1045 55.4681 56.3659C54.9795 56.6306 54.4538 56.8444 54.047 56.8444C53.8855 56.8444 53.7684 56.8096 53.6793 56.7447C53.5893 56.6792 53.5157 56.5743 53.4594 56.412L53.4593 56.4117C53.4503 56.3859 53.4407 56.321 53.4365 56.2125C53.4324 56.1092 53.4335 55.9798 53.439 55.8354C53.4499 55.5468 53.4783 55.2051 53.5159 54.9051L53.5159 54.9051L53.5163 54.9015L54.6402 43.6016ZM54.0331 56.984C54.9256 56.984 56.2531 56.0606 56.6387 55.7771L53.3256 56.4686C53.4492 56.825 53.6679 56.984 54.0331 56.984Z" fill="#00BF63" stroke="#00BF63" stroke-width="0.280475"/>
<path d="M44.2578 32.5522L44.2571 32.5522C41.4447 32.5593 38.6267 32.6267 35.8013 32.8086C35.3125 32.84 34.8223 32.8761 34.332 32.9185L34.2005 32.9299L34.19 33.0601C34.1759 33.2343 34.1685 33.4135 34.1839 33.5949L34.1939 33.712L34.3137 33.7092C34.7546 33.6993 35.1954 33.6913 35.636 33.6833C35.7482 33.6813 35.8603 33.6792 35.9724 33.6772C38.7722 33.6505 41.5712 33.6411 44.3684 33.6435C44.862 33.6439 45.3556 33.6439 45.8491 33.6439C48.1423 33.6439 50.4346 33.6439 52.7218 33.6858L52.7219 33.6858C53.4658 33.6991 54.2097 33.7139 54.9518 33.7366L55.0693 33.7402L55.1046 33.6253C55.1492 33.4796 55.2015 33.3478 55.2766 33.2299L55.3926 33.0477L55.1885 33.0253C54.3436 32.9326 53.4944 32.8635 52.6448 32.8071C49.8612 32.622 47.0624 32.5585 44.2578 32.5522Z" fill="#00BF63" stroke="#00BF63" stroke-width="0.280475"/>
<path d="M32.6102 38.4308C31.6051 38.4308 30.989 37.6452 30.9958 36.6827C31.0029 35.5518 32.1914 34.7513 32.1752 33.6564C32.1582 32.5373 31.1974 31.7439 30.9 30.7218C30.6711 29.9379 30.6776 29.0732 30.8721 28.2415C31.3114 26.3642 32.7032 24.7704 34.5502 24.0843C37.0208 23.1664 39.5828 23.782 41.6004 25.0132C42.5198 25.5739 43.4138 26.1919 44.4601 26.5365C45.3807 26.8396 46.173 26.6532 47.1368 26.3634C49.359 25.6953 51.5389 26.2279 53.1584 27.6071C53.6569 28.0316 54.6037 28.8704 54.2857 29.6622C54.131 30.0467 53.7262 30.2073 53.3524 30.2464C52.7423 30.3114 52.1139 30.259 51.5072 30.2582C49.2572 30.2558 47.0053 30.2731 44.7564 30.2597C42.9379 30.2488 41.1024 30.2731 39.2721 30.4908C38.4573 30.5879 37.5829 30.6983 36.8036 31.0398C36.4456 31.1964 36.122 31.451 35.8729 31.7556C35.2843 32.4746 35.4326 33.3103 35.4749 34.1115C35.568 35.8502 34.884 38.4308 32.6102 38.4308Z" fill="#FFD12F"/>
</svg>
